<?xml version="1.0" encoding="UTF-8" standalone="no"?>
<!-- Created with Inkscape (http://www.inkscape.org/) -->

<svg
   version="1.1"
   id="svg2"
   width="1920"
   height="1080"
   viewBox="0 200 1820 1080"
   sodipodi:docname="reshot-illustration-page-under-maintenance-VZ7YTXG2F8.eps"
   xmlns:inkscape="http://www.inkscape.org/namespaces/inkscape"
   xmlns:sodipodi="http://sodipodi.sourceforge.net/DTD/sodipodi-0.dtd"
   xmlns="http://www.w3.org/2000/svg"
   xmlns:svg="http://www.w3.org/2000/svg">
   <defs
      id="defs6" />
   <sodipodi:namedview
      id="namedview4"
      pagecolor="#ffffff"
      bordercolor="#000000"
      borderopacity="0.25"
      inkscape:showpageshadow="2"
      inkscape:pageopacity="0.0"
      inkscape:pagecheckerboard="0"
      inkscape:deskcolor="#d1d1d1" />
   <g
      id="g8"
      inkscape:groupmode="layer"
      inkscape:label="ink_ext_XXXXXX"
      transform="matrix(1.3333333,0,0,-1.3333333,0,1365.3333)">
      <g
         id="g10"
         transform="scale(0.1)">
         <path
            d="M 0,10240 H 14400 V 0 H 0 v 10240"
            style="fill:#ffffff;fill-opacity:1;fill-rule:nonzero;stroke:none"
            id="path12" />
         <path
            d="m 9394.52,1778.15 c 1433.48,0 2595.48,-45.16 2595.48,-100.86 0,-55.7 -1162,-100.85 -2595.48,-100.85 -1433.45,0 -2595.49,45.15 -2595.49,100.85 0,55.7 1162.04,100.86 2595.49,100.86"
            style="fill:#c7edfb;fill-opacity:1;fill-rule:nonzero;stroke:none"
            id="path14" />
         <path
            d="m 2825,1750 c 897.46,0 1625,-32.54 1625,-72.69 0,-40.15 -727.54,-72.69 -1625,-72.69 -897.46,0 -1625,32.54 -1625,72.69 0,40.15 727.54,72.69 1625,72.69"
            style="fill:#c7edfb;fill-opacity:1;fill-rule:nonzero;stroke:none"
            id="path16" />
         <path
            d="m 4625,1750 c 897.46,0 1625,-32.54 1625,-72.69 0,-40.15 -727.54,-72.69 -1625,-72.69 -897.46,0 -1625,32.54 -1625,72.69 0,40.15 727.54,72.69 1625,72.69"
            style="fill:#c7edfb;fill-opacity:1;fill-rule:nonzero;stroke:none"
            id="path18" />
         <path
            d="m 5770.89,6628.61 c -30.08,66.14 -45.12,118.52 -45.12,157.13 0,159.98 126.46,289.67 282.46,289.67 156.01,0 282.47,-129.69 282.47,-289.67 0,3.44 -0.11,6.76 -0.35,9.98 v 0 c 9.62,-129.39 55.52,-253.44 132.44,-357.92 77.42,-105.15 116.13,-202.3 116.13,-291.44 0,-33.41 -5.82,-70.16 -17.46,-110.23 v 0 c -51.31,-176.75 -29.88,-366.67 59.51,-527.54 59.28,-106.67 88.92,-203 88.92,-288.99 0,-50.52 -10.7,-107.83 -32.09,-171.93 v 0 c -60.49,-181.26 -43.11,-379.49 48.01,-547.45 71.97,-132.68 107.96,-250.32 107.96,-352.91 0,-444.9 -351.69,-805.58 -785.54,-805.58 -433.84,0 -785.53,360.68 -785.53,805.58 0,102.59 35.99,220.23 107.96,352.91 v 0 c 91.12,167.96 108.5,366.19 48.01,547.45 -21.39,64.1 -32.09,121.41 -32.09,171.93 0,87 30.3,184.4 90.92,292.18 v 0 c 90.17,160.32 112.59,350.01 62.28,526.94 -11.12,39.11 -16.68,74.99 -16.68,107.64 0,140.21 95.93,300.96 287.79,482.25"
            style="fill:#c7edfb;fill-opacity:1;fill-rule:nonzero;stroke:none"
            id="path20" />
         <path
            d="m 5992.7,3896.07 292.1,375.48 c 3.39,4.36 9.68,5.15 14.04,1.76 4.35,-3.4 5.14,-9.68 1.75,-14.04 L 5992.7,3863.5 v -237.76 -710.32 c 0,-5.53 -4.48,-10 -10,-10 -5.53,0 -10,4.47 -10,10 v 706.17 l -327.07,326.75 c -3.91,3.9 -3.91,10.23 -0.01,14.14 3.91,3.9 10.23,3.91 14.15,0.01 l 312.93,-312.63 v 217.07 c 0,0.03 0,0.07 0,0.1 v 476.47 l -307.9,395.77 c -3.39,4.36 -2.6,10.64 1.76,14.04 4.35,3.39 10.64,2.6 14.03,-1.76 l 298.22,-383.33 305.99,393.33 c 3.39,4.36 9.68,5.15 14.04,1.76 4.35,-3.4 5.14,-9.68 1.75,-14.04 l -309.18,-397.43 c 0.84,-1.49 1.29,-3.18 1.29,-4.91 v -450.86"
            style="fill:#2f6db4;fill-opacity:1;fill-rule:nonzero;stroke:none"
            id="path22" />
         <path
            d="m 2344.03,3889.15 h 1538.1 v 78.68 h -1538.1 z m 0,-254.58 h 1538.1 v 78.69 h -1538.1 z m 0,-351.77 v -564.69 h -123.6 v 564.69 h -59.5 v -749.83 h -123.6 V 3282.8 H 1900 v 129.6 h 320.43 v 46.29 h -183.1 v 175.88 h 183.1 v 78.69 h -183.1 v 175.89 h 183.1 v 78.68 h -183.1 v 175.89 h 183.1 V 4190 h 123.6 v -46.28 h 1538.1 V 4190 h 123.6 v -46.28 h 260.92 v -175.89 h -260.92 v -78.68 h 260.92 v -175.89 h -260.92 v -78.69 h 260.92 v -175.88 h -260.92 v -46.29 h 444.03 v -129.6 h -215.15 v -749.83 h -123.6 v 749.83 h -105.28 v -564.69 h -123.6 v 564.69 z m 0,129.6 h 1538.1 v 46.29 h -1538.1 v -46.29"
            style="fill:#c7edfb;fill-opacity:1;fill-rule:nonzero;stroke:none"
            id="path24" />
         <path
            d="m 5010,2370 c 64.54,131.49 161.3,197.24 290.3,197.24 227.78,0 166.14,-120.59 249.21,-93.8 83.07,26.8 166.44,500.78 373.12,515.69 206.68,14.91 297.45,-196.2 466.27,-196.2 168.82,0 44.93,430.85 592.22,394.95 547.31,-35.9 412.05,-714.44 637.15,-714.44 225.1,0 142.02,123.28 359.08,123.28 125.22,0 224.34,-75.58 297.39,-226.72 H 5010"
            style="fill:#9ddef8;fill-opacity:1;fill-rule:nonzero;stroke:none"
            id="path26" />
         <path
            d="M 1260.98,2340 H 10214"
            style="fill:none;stroke:#2f6db4;stroke-width:20;stroke-linecap:round;stroke-linejoin:round;stroke-miterlimit:4;stroke-dasharray:none;stroke-opacity:1"
            id="path28" />
         <path
            d="M 1160.98,2140 H 10314"
            style="fill:none;stroke:#2f6db4;stroke-width:20;stroke-linecap:round;stroke-linejoin:round;stroke-miterlimit:4;stroke-dasharray:none;stroke-opacity:1"
            id="path30" />
         <path
            d="m 1750,5695 c 0,85.6 69.39,155 155,155 45.95,0 87.24,-20 115.62,-51.77 -0.41,3.87 -0.62,7.8 -0.62,11.77 0,60.75 49.25,110 110,110 37.36,0 70.38,-18.63 90.25,-47.1 6.77,170.75 147.34,307.1 319.75,307.1 143.67,0 265.22,-94.67 305.67,-225.03 14.61,43.61 55.8,75.03 104.33,75.03 60.75,0 110,-49.25 110,-110 0,-8.92 -1.06,-17.59 -3.07,-25.89 27.16,16.43 59.01,25.89 93.07,25.89 99.41,0 180,-80.59 180,-180 0,-10.47 -0.89,-20.73 -2.61,-30.71 12.68,6.83 27.19,10.71 42.61,10.71 49.71,0 90,-40.3 90,-90 0,-43.76 -54.27,-88.4 -71.96,-90 H 1882.22 c -74.6,12.45 -132.22,76.99 -132.22,155"
            style="fill:#c7edfb;fill-opacity:1;fill-rule:nonzero;stroke:none"
            id="path32" />
         <path
            d="m 10710,5315 c 0,85.6 69.4,155 155,155 46,0 87.2,-20 115.6,-51.77 -0.4,3.87 -0.6,7.8 -0.6,11.77 0,60.75 49.2,110 110,110 37.4,0 70.4,-18.63 90.3,-47.1 6.7,170.75 147.3,307.1 319.7,307.1 143.7,0 265.2,-94.67 305.7,-225.03 14.6,43.61 55.8,75.03 104.3,75.03 60.8,0 110,-49.25 110,-110 0,-8.92 -1.1,-17.59 -3.1,-25.89 27.2,16.43 59,25.89 93.1,25.89 99.4,0 180,-80.59 180,-180 0,-10.47 -0.9,-20.73 -2.6,-30.71 12.7,6.83 27.2,10.71 42.6,10.71 49.7,0 90,-40.3 90,-90 0,-43.76 -54.3,-88.4 -72,-90 h -1505.8 c -74.6,12.45 -132.2,76.99 -132.2,155"
            style="fill:#c7edfb;fill-opacity:1;fill-rule:nonzero;stroke:none"
            id="path34" />
         <path
            d="m 7030,7135 c 0,85.6 69.39,155 155,155 45.96,0 87.24,-20 115.63,-51.77 -0.42,3.87 -0.63,7.8 -0.63,11.77 0,60.75 49.25,110 110,110 37.36,0 70.37,-18.63 90.25,-47.1 6.77,170.75 147.34,307.1 319.75,307.1 143.66,0 265.21,-94.67 305.67,-225.03 14.61,43.61 55.8,75.03 104.33,75.03 60.75,0 110,-49.25 110,-110 0,-8.92 -1.06,-17.59 -3.07,-25.89 27.16,16.43 59.01,25.89 93.07,25.89 99.41,0 180,-80.59 180,-180 0,-10.47 -0.9,-20.73 -2.61,-30.71 12.69,6.83 27.2,10.71 42.61,10.71 49.71,0 90,-40.3 90,-90 0,-43.76 -54.28,-88.4 -71.95,-90 H 7162.22 c -74.6,12.45 -132.22,76.99 -132.22,155"
            style="fill:#c7edfb;fill-opacity:1;fill-rule:nonzero;stroke:none"
            id="path36" />
         <path
            d="m 3510,6795 c 0,85.6 69.39,155 155,155 45.95,0 87.24,-20 115.62,-51.77 -0.41,3.87 -0.62,7.8 -0.62,11.77 0,60.75 49.25,110 110,110 37.36,0 70.38,-18.63 90.25,-47.1 6.77,170.75 147.34,307.1 319.75,307.1 143.67,0 265.22,-94.67 305.67,-225.03 14.61,43.61 55.8,75.03 104.33,75.03 60.75,0 110,-49.25 110,-110 0,-8.92 -1.06,-17.59 -3.07,-25.89 27.16,16.43 59.01,25.89 93.07,25.89 99.41,0 180,-80.59 180,-180 0,-10.47 -0.89,-20.73 -2.61,-30.71 12.68,6.83 27.19,10.71 42.61,10.71 49.71,0 90,-40.3 90,-90 0,-43.76 -54.27,-88.4 -71.96,-90 H 3642.22 c -74.6,12.45 -132.22,76.99 -132.22,155"
            style="fill:#c7edfb;fill-opacity:1;fill-rule:nonzero;stroke:none"
            id="path38" />
         <path
            d="m 6913.86,1515 318.88,-41.15 c 9.97,-1.29 17.45,-9.78 17.45,-19.84 v -52.28 c 0,-10.05 -7.48,-18.54 -17.45,-19.83 l -318.88,-41.14 c -1.7,-0.23 -3.42,-0.23 -5.11,0 l -318.88,41.14 c -9.98,1.29 -17.44,9.78 -17.44,19.83 v 52.28 c 0,10.06 7.46,18.55 17.44,19.84 l 318.88,41.15 c 1.69,0.21 3.41,0.21 5.11,0 z"
            style="fill:none;stroke:#c7edfb;stroke-width:20;stroke-linecap:round;stroke-linejoin:round;stroke-miterlimit:4;stroke-dasharray:none;stroke-opacity:1"
            id="path40" />
         <path
            d="m 7324.28,1335.12 318.87,-41.14 c 9.98,-1.29 17.45,-9.77 17.45,-19.83 v -52.28 c 0,-10.06 -7.47,-18.55 -17.45,-19.84 l -318.87,-41.14 c -1.7,-0.22 -3.42,-0.22 -5.12,0 l -318.88,41.14 c -9.97,1.29 -17.44,9.78 -17.44,19.84 v 52.28 c 0,10.06 7.47,18.54 17.44,19.83 l 318.88,41.14 c 1.7,0.23 3.42,0.23 5.12,0 z"
            style="fill:none;stroke:#c7edfb;stroke-width:20;stroke-linecap:round;stroke-linejoin:round;stroke-miterlimit:4;stroke-dasharray:none;stroke-opacity:1"
            id="path42" />
         <path
            d="m 2816.57,2000.08 318.88,-41.14 c 9.98,-1.29 17.45,-9.77 17.45,-19.83 v -52.28 c 0,-10.06 -7.47,-18.55 -17.45,-19.84 l -318.88,-41.14 c -1.7,-0.22 -3.42,-0.22 -5.11,0 l -318.88,41.14 c -9.98,1.29 -17.44,9.78 -17.44,19.84 v 52.28 c 0,10.06 7.46,18.54 17.44,19.83 l 318.88,41.14 c 1.69,0.23 3.41,0.23 5.11,0 z"
            style="fill:none;stroke:#c7edfb;stroke-width:20;stroke-linecap:round;stroke-linejoin:round;stroke-miterlimit:4;stroke-dasharray:none;stroke-opacity:1"
            id="path44" />
         <path
            d="m 6546.52,1338.4 318.88,-41.14 c 9.97,-1.29 17.44,-9.78 17.44,-19.83 v -52.29 c 0,-10.06 -7.47,-18.54 -17.44,-19.83 l -318.88,-41.14 c -1.7,-0.23 -3.42,-0.23 -5.12,0 l -318.88,41.14 c -9.97,1.29 -17.44,9.77 -17.44,19.83 v 52.29 c 0,10.05 7.47,18.54 17.44,19.83 l 318.88,41.14 c 1.7,0.22 3.42,0.22 5.12,0 z"
            style="fill:none;stroke:#c7edfb;stroke-width:20;stroke-linecap:round;stroke-linejoin:round;stroke-miterlimit:4;stroke-dasharray:none;stroke-opacity:1"
            id="path46" />
         <path
            d="m 1556.77,1422.57 318.88,-41.14 c 9.98,-1.29 17.44,-9.77 17.44,-19.83 v -52.29 c 0,-10.05 -7.46,-18.54 -17.44,-19.83 l -318.88,-41.14 c -1.7,-0.22 -3.42,-0.22 -5.11,0 l -318.89,41.14 c -9.97,1.29 -17.44,9.78 -17.44,19.83 v 52.29 c 0,10.06 7.47,18.54 17.44,19.83 l 318.89,41.14 c 1.69,0.23 3.41,0.23 5.11,0 z"
            style="fill:none;stroke:#c7edfb;stroke-width:20;stroke-linecap:round;stroke-linejoin:round;stroke-miterlimit:4;stroke-dasharray:none;stroke-opacity:1"
            id="path48" />
         <path
            d="m 1895.65,1244.4 318.88,-41.14 c 9.97,-1.29 17.44,-9.79 17.44,-19.84 v -52.28 c 0,-10.06 -7.47,-18.55 -17.44,-19.84 l -318.88,-41.14 c -1.7,-0.22 -3.42,-0.22 -5.12,0 l -318.87,41.14 c -9.98,1.29 -17.45,9.78 -17.45,19.84 v 52.28 c 0,10.05 7.47,18.55 17.45,19.84 l 318.87,41.14 c 1.7,0.22 3.42,0.22 5.12,0 z"
            style="fill:none;stroke:#c7edfb;stroke-width:20;stroke-linecap:round;stroke-linejoin:round;stroke-miterlimit:4;stroke-dasharray:none;stroke-opacity:1"
            id="path50" />
         <path
            d="m 10264.5,7760.76 1410,-975"
            style="fill:none;stroke:#434a9d;stroke-width:20;stroke-linecap:round;stroke-linejoin:round;stroke-miterlimit:4;stroke-dasharray:none;stroke-opacity:1"
            id="path52" />
         <path
            d="m 9394.52,6770.76 869.98,1000 2675,-1000"
            style="fill:none;stroke:#434a9d;stroke-width:20;stroke-linecap:round;stroke-linejoin:round;stroke-miterlimit:4;stroke-dasharray:none;stroke-opacity:1"
            id="path54" />
         <path
            d="m 10064,6799.02 205.5,935.88 174,-935.88 V 3173.98 H 10064 Z"
            style="fill:none;stroke:#434a9d;stroke-width:20;stroke-linecap:round;stroke-linejoin:round;stroke-miterlimit:4;stroke-dasharray:none;stroke-opacity:1"
            id="path56" />
         <path
            d="m 10064,3902.59 379.5,-364.3 -379.5,-364.31 z"
            style="fill:none;stroke:#434a9d;stroke-width:20;stroke-linecap:round;stroke-linejoin:round;stroke-miterlimit:4;stroke-dasharray:none;stroke-opacity:1"
            id="path58" />
         <path
            d="M 10064,4631.21 10443.5,4266.9 10064,3902.59 Z"
            style="fill:none;stroke:#434a9d;stroke-width:20;stroke-linecap:round;stroke-linejoin:round;stroke-miterlimit:4;stroke-dasharray:none;stroke-opacity:1"
            id="path60" />
         <path
            d="m 10064,5353.81 379.5,-364.3 -379.5,-364.31 z"
            style="fill:none;stroke:#434a9d;stroke-width:20;stroke-linecap:round;stroke-linejoin:round;stroke-miterlimit:4;stroke-dasharray:none;stroke-opacity:1"
            id="path62" />
         <path
            d="M 10064,6076.42 10443.5,5712.11 10064,5347.8 Z"
            style="fill:none;stroke:#434a9d;stroke-width:20;stroke-linecap:round;stroke-linejoin:round;stroke-miterlimit:4;stroke-dasharray:none;stroke-opacity:1"
            id="path64" />
         <path
            d="m 10064,6434.71 h 379.5 l -379.5,-364.3 z"
            style="fill:none;stroke:#434a9d;stroke-width:20;stroke-linecap:round;stroke-linejoin:round;stroke-miterlimit:4;stroke-dasharray:none;stroke-opacity:1"
            id="path66" />
         <path
            d="m 9368.51,6430 v 339.05 H 12933.5 V 6430 Z"
            style="fill:none;stroke:#434a9d;stroke-width:20;stroke-linecap:round;stroke-linejoin:round;stroke-miterlimit:4;stroke-dasharray:none;stroke-opacity:1"
            id="path68" />
         <path
            d="m 12217,6430 358.3,339.05 358.2,-339.05 z"
            style="fill:none;stroke:#434a9d;stroke-width:20;stroke-linecap:round;stroke-linejoin:round;stroke-miterlimit:4;stroke-dasharray:none;stroke-opacity:1"
            id="path70" />
         <path
            d="m 11500.4,6430 358.3,339.05 L 12217,6430 Z"
            style="fill:none;stroke:#434a9d;stroke-width:20;stroke-linecap:round;stroke-linejoin:round;stroke-miterlimit:4;stroke-dasharray:none;stroke-opacity:1"
            id="path72" />
         <path
            d="m 10789.8,6430 358.3,339.05 358.2,-339.05 z"
            style="fill:none;stroke:#434a9d;stroke-width:20;stroke-linecap:round;stroke-linejoin:round;stroke-miterlimit:4;stroke-dasharray:none;stroke-opacity:1"
            id="path74" />
         <path
            d="m 10079.2,6430 358.2,339.05 358.3,-339.05 z"
            style="fill:none;stroke:#434a9d;stroke-width:20;stroke-linecap:round;stroke-linejoin:round;stroke-miterlimit:4;stroke-dasharray:none;stroke-opacity:1"
            id="path76" />
         <path
            d="M 9368.51,6430 9726.78,6769.05 10085.1,6430 Z"
            style="fill:none;stroke:#434a9d;stroke-width:20;stroke-linecap:round;stroke-linejoin:round;stroke-miterlimit:4;stroke-dasharray:none;stroke-opacity:1"
            id="path78" />
         <path
            d="m 11314.5,5335.76 495,1094.24 1120,-850.55"
            style="fill:none;stroke:#434a9d;stroke-width:20;stroke-linecap:round;stroke-linejoin:round;stroke-miterlimit:4;stroke-dasharray:none;stroke-opacity:1"
            id="path80" />
         <path
            d="m 9980,3393.32 h 1140 V 2790.83 H 9980 v 602.49"
            style="fill:#f1b134;fill-opacity:1;fill-rule:nonzero;stroke:none"
            id="path82" />
         <path
            d="m 10260,4210 h 1140 V 3392.9 H 10260 V 4210"
            style="fill:#ea8714;fill-opacity:1;fill-rule:nonzero;stroke:none"
            id="path84" />
         <path
            d="m 11259.9,5339.23 1718.6,272.2 127.8,-807.04 -1718.5,-272.2 -127.9,807.04"
            style="fill:#f1b134;fill-opacity:1;fill-rule:nonzero;stroke:none"
            id="path86" />
         <path
            d="m 5539.66,2918.7 c 4.25,-4.39 8.58,-9.18 12.99,-14.42 111.95,-132.64 147.34,-875.89 265.59,-1065.78 31.17,-69.54 -77.09,-152.02 -136.87,-68.2 -38.65,111.37 -131.15,491.69 -233.88,623.57 -138.8,178.18 -131.05,316.89 -111.55,382.39 -11.86,14.57 -24.15,31.04 -36.86,49.42 -133.13,192.61 -367.83,524.04 -348.83,757.34 18.99,233.3 158.97,309.14 292.06,116.6 125.35,-181.32 293.62,-548.86 297.35,-780.92"
            style="fill:#f9b2be;fill-opacity:1;fill-rule:nonzero;stroke:none"
            id="path88" />
         <path
            d="m 5756.55,1667.26 c -61.62,-10.43 -99.67,51.92 -83.84,144.58 4,23.41 48.56,-11.36 81.78,1.55 20.43,7.94 36.77,61.88 63.12,66.73 100.37,18.49 215.78,21.52 265.6,18.77 84.17,-4.64 98.23,-23.53 68.31,-70.39 -29.91,-46.85 -333.34,-150.81 -394.97,-161.24"
            style="fill:#f14a1c;fill-opacity:1;fill-rule:nonzero;stroke:none"
            id="path90" />
         <path
            d="m 5869.76,1846.47 c -0.86,-5.45 -5.99,-9.18 -11.44,-8.31 -5.45,0.86 -9.17,5.99 -8.31,11.44 l 9.54,60.28 c 0.87,5.45 5.99,9.17 11.44,8.31 5.46,-0.87 9.18,-5.99 8.32,-11.45 l -9.55,-60.27"
            style="fill:#952e1d;fill-opacity:1;fill-rule:nonzero;stroke:none"
            id="path92" />
         <path
            d="m 5912.17,1845.93 c -0.87,-5.46 -5.99,-9.18 -11.44,-8.31 -5.46,0.86 -9.18,5.98 -8.31,11.44 l 9.54,60.27 c 0.86,5.46 5.98,9.18 11.44,8.32 5.45,-0.87 9.18,-5.98 8.31,-11.44 l -9.54,-60.28"
            style="fill:#952e1d;fill-opacity:1;fill-rule:nonzero;stroke:none"
            id="path94" />
         <path
            d="m 5954.47,1844.77 c -0.87,-5.46 -5.99,-9.18 -11.44,-8.32 -5.46,0.87 -9.18,5.99 -8.32,11.45 l 9.55,60.27 c 0.86,5.46 5.98,9.18 11.44,8.31 5.45,-0.86 9.17,-5.99 8.31,-11.43 l -9.54,-60.28"
            style="fill:#952e1d;fill-opacity:1;fill-rule:nonzero;stroke:none"
            id="path96" />
         <path
            d="m 5693.8,1702.97 c -5.02,2.29 -7.23,8.23 -4.93,13.25 2.3,5.03 8.23,7.23 13.25,4.94 30.45,-13.93 55.69,-17.45 75.84,-11.14 57.76,18.09 267.41,93.09 300.71,109.64 21.68,10.79 38.2,21.59 47.63,31.51 8.85,9.3 10.22,15.65 5.6,21.53 -3.4,4.35 -2.65,10.63 1.7,14.03 4.34,3.41 10.63,2.66 14.04,-1.68 11.76,-15 8.12,-31.94 -6.85,-47.67 -11.37,-11.95 -29.63,-23.9 -53.22,-35.62 -34.55,-17.18 -244.87,-92.42 -303.63,-110.83 -25.47,-7.97 -55.57,-3.78 -90.14,12.04"
            style="fill:#952e1d;fill-opacity:1;fill-rule:nonzero;stroke:none"
            id="path98" />
         <path
            d="m 4469.7,2636.14 c -2.77,-1 -5.63,-1.98 -8.57,-2.95 -164.93,-54.1 -853.84,198.03 -1074.19,159.51 -76.16,-2.85 -112.08,128.43 -11.97,152.46 117.73,-5.89 491.54,-69.11 652.31,-23.25 185.05,52.77 303.69,17.65 367.8,-20.26 64.89,236.15 204.47,629.73 380.63,759.35 188.53,138.72 325.04,-24.63 267.04,-251.39 -58,-226.77 -238.47,-566.28 -422.16,-701.45 -58.64,-43.14 -110.01,-66.96 -150.89,-72.02"
            style="fill:#f9b2be;fill-opacity:1;fill-rule:nonzero;stroke:none"
            id="path100" />
         <path
            d="m 3296.98,2906.31 c 13.42,61.05 85.47,72.97 165.45,23.59 20.21,-12.48 -28.72,-40.78 -29.19,-76.42 -0.29,-21.91 43.6,-57.26 38.22,-83.51 -20.45,-99.99 -60.88,-208.13 -82.09,-253.29 -35.83,-76.3 -58.62,-82.26 -90.85,-36.97 -32.24,45.29 -14.97,365.56 -1.54,426.6"
            style="fill:#f14a1c;fill-opacity:1;fill-rule:nonzero;stroke:none"
            id="path102" />
         <path
            d="m 3420.73,2734.22 c -4.74,2.84 -6.27,8.99 -3.43,13.72 2.85,4.73 8.99,6.27 13.73,3.42 l 52.31,-31.42 c 4.73,-2.85 6.26,-9 3.42,-13.72 -2.84,-4.74 -8.99,-6.27 -13.72,-3.43 l -52.31,31.43"
            style="fill:#952e1d;fill-opacity:1;fill-rule:nonzero;stroke:none"
            id="path104" />
         <path
            d="m 3404.34,2695.1 c -4.74,2.85 -6.26,8.99 -3.42,13.72 2.84,4.74 8.99,6.26 13.72,3.42 l 52.31,-31.42 c 4.73,-2.85 6.27,-8.99 3.43,-13.72 -2.85,-4.74 -8.99,-6.27 -13.73,-3.43 l -52.31,31.43"
            style="fill:#952e1d;fill-opacity:1;fill-rule:nonzero;stroke:none"
            id="path106" />
         <path
            d="m 3387.42,2656.31 c -4.74,2.86 -6.27,9 -3.43,13.73 2.85,4.73 8.99,6.26 13.72,3.42 l 52.32,-31.42 c 4.73,-2.84 6.26,-9 3.42,-13.72 -2.84,-4.74 -8.99,-6.27 -13.72,-3.43 l -52.31,31.42"
            style="fill:#952e1d;fill-opacity:1;fill-rule:nonzero;stroke:none"
            id="path108" />
         <path
            d="m 3353.61,2951.09 c 4.01,3.8 10.34,3.62 14.13,-0.39 3.8,-4.01 3.63,-10.34 -0.39,-14.13 -24.31,-23.02 -37.03,-45.1 -38.73,-66.15 -4.86,-60.34 -13.86,-282.82 -10.98,-319.89 1.87,-24.14 5.7,-43.49 11.36,-55.96 5.31,-11.69 10.69,-15.34 17.87,-13.27 5.3,1.54 10.84,-1.52 12.38,-6.82 1.53,-5.31 -1.53,-10.85 -6.83,-12.38 -18.3,-5.3 -32.65,4.43 -41.63,24.2 -6.82,15.02 -11.05,36.42 -13.09,62.68 -2.99,38.48 6.04,261.67 10.99,323.04 2.14,26.61 17.31,52.94 44.92,79.07"
            style="fill:#952e1d;fill-opacity:1;fill-rule:nonzero;stroke:none"
            id="path110" />
         <path
            d="m 5531.56,2980.23 c 2.74,-29.37 -199.65,-195.19 -238.23,-147.51 -92.59,114.43 -207.69,301.28 -280.92,475.54 -71.64,-218.76 -220.43,-488.48 -374.63,-603.56 -86.6,97.51 -130.08,145.57 -256.61,170.76 29.72,129.01 91.09,318.42 167.26,490.67 -27.39,223.28 16.59,342.56 123.28,423.65 108.23,82.27 442.43,128.82 547.88,48.66 102.24,-77.7 294.58,-671.55 311.97,-858.21"
            style="fill:#465cb3;fill-opacity:1;fill-rule:nonzero;stroke:none"
            id="path112" />
         <path
            d="m 5019.16,3301.4 c -2.23,-5.06 -8.13,-7.35 -13.18,-5.13 -5.06,2.22 -7.36,8.12 -5.14,13.18 l 32.72,74.42 c 1.3,2.94 3.93,5.08 7.07,5.76 52.24,11.21 91.39,45.72 117.91,104.49 2.27,5.03 8.19,7.26 13.22,5 5.04,-2.28 7.28,-8.2 5.01,-13.23 -28.18,-62.45 -70.63,-100.95 -126.92,-114.66 l -30.69,-69.83"
            style="fill:#698bcf;fill-opacity:1;fill-rule:nonzero;stroke:none"
            id="path114" />
         <path
            d="m 4531.8,2840.11 c -1.94,-5.16 -7.7,-7.79 -12.87,-5.87 -5.18,1.94 -7.8,7.7 -5.87,12.88 166.38,445.44 240.89,718.42 223.43,815.15 -0.98,5.43 2.63,10.64 8.07,11.61 5.44,0.99 10.64,-2.62 11.62,-8.06 18.39,-101.95 -56.38,-375.92 -224.38,-825.71"
            style="fill:#698bcf;fill-opacity:1;fill-rule:nonzero;stroke:none"
            id="path116" />
         <path
            d="m 5081.95,3329.01 c -2.75,4.79 -1.09,10.91 3.71,13.65 4.79,2.75 10.9,1.09 13.65,-3.71 l 252.16,-440.25 c 2.75,-4.8 1.09,-10.91 -3.7,-13.65 -4.8,-2.75 -10.9,-1.09 -13.65,3.71 l -252.17,440.25"
            style="fill:#698bcf;fill-opacity:1;fill-rule:nonzero;stroke:none"
            id="path118" />
         <path
            d="m 5925,4554.41 c -201.82,-271.04 -331.95,-426.66 -390.38,-466.85 -42.47,-29.2 -76.78,-37.26 -100.15,-25.75 -8.77,1.09 -18.36,2.87 -28.8,5.38 -108.21,26.03 -382.5,399.67 -407.07,463.33 -24.57,63.67 -14.4,140.01 93.79,114.01 90.76,-21.83 272.12,-257.5 355.75,-390.62 88.85,107.47 280.05,257.95 377.38,332.39 -17.87,18.51 -30.01,42.25 -31.67,65.94 -1.25,17.88 28.65,8.43 28.7,25.19 0.07,21.92 10.15,68.87 46.01,71.37 54.55,3.82 126.51,-43.75 130.16,-95.94 3.22,-46.13 -28.62,-86.96 -73.72,-98.45"
            style="fill:#f9b2be;fill-opacity:1;fill-rule:nonzero;stroke:none"
            id="path120" />
         <path
            d="m 5440.8,4268.15 c 4.6,3.06 10.81,1.81 13.86,-2.79 3.06,-4.6 1.81,-10.81 -2.79,-13.87 -22.14,-14.71 -32.87,-33.59 -32.94,-57.57 -0.02,-5.53 -4.51,-9.99 -10.04,-9.97 -5.52,0.02 -9.98,4.51 -9.96,10.03 0.09,30.83 14.3,55.86 41.87,74.17"
            style="fill:#f25569;fill-opacity:1;fill-rule:nonzero;stroke:none"
            id="path122" />
         <path
            d="m 5888.55,4669.31 c -14.88,9.95 -42.93,4.17 -83.9,-19.78 -4.77,-2.79 -10.89,-1.18 -13.68,3.58 -2.79,4.77 -1.18,10.9 3.59,13.68 46.95,27.46 81.9,34.66 105.11,19.14 15.2,-10.16 16.39,-24.94 0.88,-34.05 -3.53,-2.08 -8.11,-3.99 -13.78,-5.77 3.79,-3.9 5.76,-8.89 5.74,-15.13 -0.01,-5.52 -4.5,-9.99 -10.02,-9.97 -5.53,0.02 -9.99,4.5 -9.98,10.03 0.01,1 -0.57,1.71 -3.75,3.01 -5.23,2.14 -14.06,3.32 -26.23,3.28 -12.46,-0.04 -13.75,18.18 -1.42,19.9 24.47,3.42 40.85,7.39 48.42,11.4 -0.3,0.21 -0.63,0.45 -0.98,0.68"
            style="fill:#f25569;fill-opacity:1;fill-rule:nonzero;stroke:none"
            id="path124" />
         <path
            d="m 5890.56,4640.44 c -4.93,2.49 -6.91,8.5 -4.42,13.43 2.5,4.93 8.51,6.91 13.44,4.42 20.33,-10.28 32.61,-12.36 36.04,-9.38 13.2,11.51 25.07,18.48 32.84,21.73 5.09,2.13 10.95,-0.27 13.08,-5.37 2.13,-5.1 -0.27,-10.96 -5.37,-13.09 -1.31,-0.54 -3.99,-1.86 -7.69,-4.04 -6.34,-3.72 -13.03,-8.47 -19.73,-14.31 -11.9,-10.36 -31.03,-7.11 -58.19,6.61"
            style="fill:#f25569;fill-opacity:1;fill-rule:nonzero;stroke:none"
            id="path126" />
         <path
            d="m 4730.09,4759.74 c -0.98,51.63 6.12,118.39 21.3,200.26 h 182.54 c -10.73,-92.49 -14.4,-167.59 -11.03,-225.28 72.1,-19.72 137.47,-49.35 177.48,-82.95 76.05,-63.84 177.8,-219.29 65.74,-455.13 -48.16,-101.36 -5.75,-282.96 60.27,-386.45 3.19,-4.99 -398.69,-183.89 -561.81,-55.36 -59.14,46.6 126.24,132.66 -13.47,361.66 -127.84,209.55 -194.83,418.09 -87.89,577.25 29.57,44.01 92.73,63.61 166.87,66"
            style="fill:#f9b2be;fill-opacity:1;fill-rule:nonzero;stroke:none"
            id="path128" />
         <path
            d="m 4560.01,4689.77 c 21.4,31.85 60.4,50.92 108.42,59.92 55.03,10.34 102.75,-247.87 286.29,-222.11 200.71,28.18 1.26,194.07 44.52,176.2 39.31,-16.25 72.53,-37.6 97.93,-55.97 35.61,-25.76 18.78,-114.25 35.61,-137.4 58.81,-80.91 117.26,-134.38 30.14,-317.75 -48.17,-101.36 24.65,-332.05 71.22,-380.71 46.57,-48.66 -409.65,-189.63 -572.77,-61.09 -59.14,46.6 76.94,187.05 -62.78,416.04 -127.84,209.55 -145.51,363.7 -38.58,522.87"
            style="fill:#f14a1c;fill-opacity:1;fill-rule:nonzero;stroke:none"
            id="path130" />
         <path
            d="m 4670.36,3777.29 c -1.46,5.32 1.68,10.82 7,12.28 5.33,1.46 10.83,-1.68 12.28,-7.01 5.41,-19.75 69.18,-32.71 187.6,-32.71 122.5,0 229.45,26.3 321.01,78.83 4.79,2.74 10.91,1.08 13.65,-3.7 2.75,-4.8 1.1,-10.9 -3.7,-13.66 -94.71,-54.33 -205.09,-81.47 -330.96,-81.47 -129.96,0 -197.68,13.76 -206.88,47.44"
            style="fill:#892c1c;fill-opacity:1;fill-rule:nonzero;stroke:none"
            id="path132" />
         <path
            d="m 4734.75,4642.84 c 21.62,-32.49 38.37,-55.31 54.44,-73.66 49.15,-56.07 96.31,-73.39 179.07,-62.58 65.04,8.49 93.34,32.67 95.41,69.01 1.58,27.8 -11.7,60.99 -34.06,96.04 -2.97,4.65 -1.6,10.84 3.05,13.81 4.66,2.96 10.84,1.6 13.81,-3.06 24.45,-38.31 39.05,-74.81 37.17,-107.92 -2.68,-47.03 -39.02,-78.08 -112.79,-87.71 -89.32,-11.67 -143.11,8.09 -196.69,69.23 -16.78,19.13 -33.99,42.6 -56.06,75.75 -13.28,19.96 -68.11,105.31 -66.49,102.82 -3.01,4.63 -1.68,10.82 2.96,13.82 4.62,3 10.8,1.68 13.81,-2.92 -0.86,1.31 53.27,-82.95 66.37,-102.63"
            style="fill:#892c1c;fill-opacity:1;fill-rule:nonzero;stroke:none"
            id="path134" />
         <path
            d="m 4573.04,4305.98 c -1.43,5.34 1.73,10.82 7.07,12.25 5.33,1.43 10.81,-1.73 12.24,-7.06 20.1,-74.96 47.32,-135.28 81.56,-181.01 37.26,-49.74 42.17,-149.86 16.27,-301.41 -0.93,-5.44 -6.1,-9.11 -11.54,-8.18 -5.45,0.94 -9.1,6.11 -8.17,11.55 25.02,146.43 20.33,242.13 -12.56,286.05 -35.91,47.94 -64.16,110.56 -84.87,187.81"
            style="fill:#892c1c;fill-opacity:1;fill-rule:nonzero;stroke:none"
            id="path136" />
         <path
            d="m 4547.1,3855.89 c 15.61,11.81 34.78,18.76 55.51,18.76 39.9,0 10.74,-33.27 28.94,-40.87 27.4,-11.46 65.79,-25.5 65.79,-58.12 0,-54.67 -42.41,-98.99 -94.73,-98.99 -46.24,0 -84.74,34.62 -93.07,80.4 -256.31,220.24 -402.47,360.9 -438.48,422 -26.18,44.4 -31.82,79.2 -18.7,101.71 1.7,8.66 4.15,18.1 7.38,28.35 33.5,106.13 425.37,353.69 490.6,373.76 21.45,6.6 44.02,9.35 63.44,6.3 6.3,-0.78 12.58,-2.27 18.51,-5.18 21.68,-9.31 35.76,-29.37 33.13,-64.4 1.09,-9.54 1.68,-20.37 1.68,-32.66 0,-104.35 -66.84,-240.45 -98.61,-240.45 -24.8,0 -52.88,17.1 -63.81,75.21 -85.49,-64.9 -188.68,-128.95 -261.64,-167.97 100.41,-95.57 236.18,-295.01 304.06,-397.85"
            style="fill:#f9b2be;fill-opacity:1;fill-rule:nonzero;stroke:none"
            id="path138" />
         <path
            d="m 4192.33,4236.33 c -5.32,-1.46 -10.83,1.67 -12.29,7 -1.47,5.32 1.66,10.83 6.99,12.29 l 52.05,14.31 c 5.32,1.46 10.83,-1.66 12.29,-6.99 1.47,-5.33 -1.66,-10.82 -6.99,-12.29 l -52.05,-14.32"
            style="fill:#f25569;fill-opacity:1;fill-rule:nonzero;stroke:none"
            id="path140" />
         <path
            d="m 4509.29,4412.23 c -4.69,-2.94 -10.86,-1.52 -13.79,3.16 -2.93,4.67 -1.52,10.85 3.16,13.79 4.25,2.65 8.31,5.51 13.27,9.28 2.45,1.86 11.23,8.68 12.04,9.31 5.23,4.02 9.65,7.29 14.43,10.63 26.04,18.14 51.82,-11.63 48.55,-49.15 -0.48,-5.5 -5.32,-9.58 -10.83,-9.1 -5.49,0.48 -9.57,5.33 -9.09,10.83 2.05,23.55 -9.22,36.57 -17.2,31.01 -4.49,-3.13 -8.66,-6.22 -13.66,-10.07 -0.72,-0.56 -9.58,-7.44 -12.16,-9.39 -5.39,-4.1 -9.92,-7.29 -14.72,-10.3"
            style="fill:#f25569;fill-opacity:1;fill-rule:nonzero;stroke:none"
            id="path142" />
         <path
            d="m 5016.35,4763.76 c 65.75,0 129.13,250.43 129.13,387.7 0,137.26 -108.68,248.54 -242.74,248.54 -134.06,0 -242.74,-111.28 -242.74,-248.54 0,-137.27 290.61,-387.7 356.35,-387.7"
            style="fill:#f9b2be;fill-opacity:1;fill-rule:nonzero;stroke:none"
            id="path144" />
         <path
            d="m 4925.75,4808.47 c -31.05,19.08 -52.97,36.26 -65.75,51.53"
            style="fill:none;stroke:#f25569;stroke-width:20;stroke-linecap:round;stroke-linejoin:round;stroke-miterlimit:4;stroke-dasharray:none;stroke-opacity:1"
            id="path146" />
         <path
            d="m 4750,5060 c 5.48,-45.8 23.74,-64.89 54.79,-57.25 -3.65,-21 -4.57,-37.22 -2.74,-48.66"
            style="fill:none;stroke:#f25569;stroke-width:20;stroke-linecap:round;stroke-linejoin:round;stroke-miterlimit:4;stroke-dasharray:none;stroke-opacity:1"
            id="path148" />
         <path
            d="m 4310.99,5379.9 c 81.14,97.68 279.77,-11.77 395.47,-27.95 41.33,53.71 118.8,79.46 263.33,36.31 134.22,-40.08 243.8,34.35 243.8,-128.82 0,-163.15 -115.05,-74.42 -128.75,-40.07 -12.86,-47.04 -80.21,-97.86 -197.24,-137.4 -6.47,-2.19 -8.22,-60.12 -24.66,-60.12 -16.43,0 -20.57,34.36 -21.91,48.66 -1.34,14.32 -35.61,60.12 -63.01,45.8 -27.39,-14.3 -49.91,-50.06 -24.65,-94.46 25.26,-44.38 16.59,-108.77 0,-108.77 -54.79,0 -93.37,165.81 -93.37,235.98 0,26.23 0.79,54.31 4.07,81.97 -64.56,-36.35 -93.51,-71.9 -86.86,-106.67 10.96,-57.24 -19.2,-316.61 -136.97,-415.07 -123.28,-103.04 -413.65,-42.93 -290.38,0 123.27,42.94 106.84,294.85 126.01,563.92 2.39,33.45 8.89,59.94 18.72,80.66 -17.03,-16.15 -32.8,-65.55 -44.68,-151.1 -0.76,-5.46 -5.81,-9.28 -11.29,-8.53 -5.47,0.77 -9.28,5.81 -8.53,11.28 16.73,120.36 41.96,180.41 80.9,174.38"
            style="fill:#242d33;fill-opacity:1;fill-rule:nonzero;stroke:none"
            id="path150" />
         <path
            d="m 4944.9,5118.01 65.04,11.82 c 5.64,1.03 11.05,-2.72 12.07,-8.36 0.11,-0.61 0.17,-1.24 0.17,-1.85 v 0 c 0,-6.88 -5.57,-12.46 -12.44,-12.46 h -64.76 c -2.75,0 -4.98,2.24 -4.98,4.98 v 0 c 0,2.89 2.06,5.36 4.9,5.87"
            style="fill:#242d33;fill-opacity:1;fill-rule:nonzero;stroke:none"
            id="path152" />
         <path
            d="m 5166.93,5118.36 -54.68,11.42 c -5.5,1.15 -10.89,-2.37 -12.04,-7.87 -0.14,-0.68 -0.21,-1.38 -0.21,-2.08 v 0 c 0,-6.91 5.6,-12.51 12.51,-12.51 h 54.31 c 2.76,0 5.01,2.24 5.01,5 v 0 c 0,2.92 -2.05,5.43 -4.9,6.04"
            style="fill:#242d33;fill-opacity:1;fill-rule:nonzero;stroke:none"
            id="path154" />
         <path
            d="m 4983.7,5080 v 0 c 7.56,0 13.69,-6.14 13.69,-13.7 v -18.4 c 0,-7.57 -6.13,-13.7 -13.69,-13.7 v 0 c -7.57,0 -13.7,6.13 -13.7,13.7 v 18.4 c 0,7.56 6.13,13.7 13.7,13.7"
            style="fill:#1d1f24;fill-opacity:1;fill-rule:nonzero;stroke:none"
            id="path156" />
         <path
            d="m 5123.7,5090 v 0 c 7.56,0 13.69,-6.14 13.69,-13.7 v -18.4 c 0,-7.57 -6.13,-13.7 -13.69,-13.7 v 0 c -7.57,0 -13.7,6.13 -13.7,13.7 v 18.4 c 0,7.56 6.13,13.7 13.7,13.7"
            style="fill:#1d1f24;fill-opacity:1;fill-rule:nonzero;stroke:none"
            id="path158" />
         <path
            d="m 5044.89,5080 c -9.13,-57.25 -5.48,-91.61 10.96,-103.05 16.44,-11.46 31.04,-17.18 43.83,-17.18 -14.61,-20.98 -29.22,-34.34 -43.83,-40.07"
            style="fill:none;stroke:#f25569;stroke-width:20;stroke-linecap:round;stroke-linejoin:round;stroke-miterlimit:4;stroke-dasharray:none;stroke-opacity:1"
            id="path160" />
         <path
            d="m 5000,4910 c 25.57,-17.17 42.01,-25.77 49.31,-25.77 10.96,0 -16.44,-28.62 -32.87,-14.3 -10.96,9.54 -16.44,22.9 -16.44,40.07"
            style="fill:#ffffff;fill-opacity:1;fill-rule:nonzero;stroke:none"
            id="path162" />
         <path
            d="m 3780.65,2981.23 c 12.56,-8.66 25.79,-20.76 39.74,-36.85 118.86,-137.01 145.68,-913.83 270.47,-1110.6 32.61,-72.26 -85.58,-160.18 -148.85,-73.44 -40.03,115.88 -134.09,512.23 -243.02,648.6 -132.9,166.36 -137.22,300.9 -120.56,376.1 -18.52,19.73 -38.1,44.04 -58.67,72.93 -141.95,199.36 -392.26,542.4 -369.03,785.95 23.24,243.57 175.68,324.28 317.58,124.96 129.39,-181.73 300.36,-545.08 312.34,-787.65"
            style="fill:#f89b82;fill-opacity:1;fill-rule:nonzero;stroke:none"
            id="path164" />
         <path
            d="m 4003.66,2115.44 c 24.05,-122.06 51.66,-225.26 87.22,-281.33 32.61,-72.26 -85.58,-160.19 -148.86,-73.44 -17.62,51.01 -45.7,156.35 -80.92,269.94 54.22,-20.83 122.89,23.8 142.56,84.83"
            style="fill:#c1c0e6;fill-opacity:1;fill-rule:nonzero;stroke:none"
            id="path166" />
         <path
            d="m 3882.22,1977.95 c -5.39,1.17 -8.82,6.49 -7.64,11.89 1.17,5.39 6.49,8.82 11.89,7.65 41.41,-9.01 73.98,5.94 99.58,46.15 2.97,4.66 9.15,6.02 13.81,3.07 4.66,-2.97 6.03,-9.16 3.06,-13.81 -29.96,-47.05 -70.81,-65.8 -120.7,-54.95"
            style="fill:#4b51ac;fill-opacity:1;fill-rule:nonzero;stroke:none"
            id="path168" />
         <path
            d="m 4022.41,1633.77 c -65.17,-9.69 -106.97,57.54 -92.29,155.82 3.71,24.83 51.8,-13.2 86.76,-0.22 21.5,7.99 22.93,70.13 50.78,74.69 106.1,17.38 243.2,12.88 296.14,8.81 89.43,-6.86 104.78,-27.3 74.11,-76.5 -30.68,-49.19 -350.34,-152.92 -415.5,-162.6"
            style="fill:#242d33;fill-opacity:1;fill-rule:nonzero;stroke:none"
            id="path170" />
         <path
            d="m 4056.41,1839.88 c 0.69,1.55 -7.76,-17.94 -10.56,-23.94 -7.89,-16.91 -14.83,-28.08 -22.9,-34.36 -15.02,-11.7 -43.95,-9.39 -88.77,4.72 -5.27,1.66 -8.19,7.27 -6.54,12.53 1.66,5.28 7.27,8.2 12.54,6.55 38.57,-12.14 62.72,-14.07 70.48,-8.02 4.73,3.68 10.49,12.96 17.07,27.04 2.66,5.69 11,24.93 10.4,23.6 5.33,12 7.02,15.03 12.29,17.15 l 19.32,7.81 c 5.12,2.06 10.94,-0.41 13.01,-5.54 2.07,-5.12 -0.41,-10.95 -5.53,-13.02 l -17.15,-6.91 c -0.99,-1.78 -2.13,-4.16 -3.66,-7.61 z m 134.4,2.34 c 0.54,-5.5 -3.47,-10.39 -8.97,-10.93 -5.5,-0.54 -10.39,3.47 -10.93,8.97 l -5.17,52.46 c -0.53,5.5 3.48,10.39 8.98,10.93 5.49,0.55 10.39,-3.48 10.93,-8.98 z m 30.52,3.14 c 0.54,-5.5 -3.48,-10.39 -8.98,-10.94 -5.49,-0.54 -10.39,3.48 -10.92,8.97 l -5.17,52.47 c -0.54,5.49 3.48,10.39 8.97,10.92 5.5,0.55 10.39,-3.47 10.93,-8.97 z m -64.3,-5.83 c 0.54,-5.5 -3.48,-10.39 -8.97,-10.94 -5.5,-0.54 -10.39,3.48 -10.93,8.97 l -5.17,52.47 c -0.54,5.49 3.48,10.39 8.98,10.92 5.49,0.55 10.39,-3.47 10.93,-8.97 z m -130.07,-144.79 c 17.12,4.12 28.13,17.1 48.54,51.92 0.76,1.31 0.76,1.31 1.54,2.62 17.86,30.46 27.99,44.02 44.38,54.5 28.83,18.43 94.39,31.12 198.18,38.97 6.82,13 18.77,23.11 35.95,30.03 5.12,2.07 10.95,-0.4 13.01,-5.53 2.07,-5.11 -0.41,-10.95 -5.52,-13.02 -34.23,-13.8 -39.86,-43.27 -15.35,-94.17 2.39,-4.97 0.3,-10.94 -4.68,-13.34 -4.97,-2.4 -10.95,-0.31 -13.35,4.67 -13.24,27.5 -18.73,51.29 -16.33,70.81 -95.91,-7.63 -156.75,-19.68 -181.14,-35.28 -12.76,-8.15 -21.67,-20.07 -37.9,-47.75 -0.77,-1.31 -0.77,-1.31 -1.54,-2.62 -22,-37.55 -35.2,-53.72 -57.16,-60.22 3.02,-9.39 4.7,-20.02 5.01,-31.83 0.13,-5.52 -4.23,-10.11 -9.75,-10.26 -5.52,-0.13 -10.11,4.23 -10.25,9.75 -1.15,45.14 -24.72,65.93 -74.69,65.1 -5.52,-0.09 -10.07,4.3 -10.16,9.83 -0.09,5.52 4.31,10.07 9.83,10.17 38.78,0.64 66.25,-11.05 81.38,-34.35"
            style="fill:#68747a;fill-opacity:1;fill-rule:nonzero;stroke:none"
            id="path172" />
         <path
            d="m 2654.15,2652.99 c -178.23,-53.61 -885.65,215.29 -1113.16,173.6 -79.21,-3.16 -116.46,139.35 -12.32,165.54 122.43,-6.3 511.15,-74.65 678.38,-24.74 173.58,51.81 290.94,25.97 361.2,-9.76 67.13,249.42 205.24,639.87 385.36,768.59 199.07,142.25 348.81,-32.87 291.48,-270.74 -57.32,-237.85 -243.48,-591.97 -437.44,-730.57 -58.81,-42.03 -110.97,-65.81 -153.5,-71.92 v 0"
            style="fill:#f89b82;fill-opacity:1;fill-rule:nonzero;stroke:none"
            id="path174" />
         <path
            d="m 1845.41,2797.82 c -126.16,25.94 -236.41,41.04 -304.13,28.64 -79.2,-3.16 -116.46,139.35 -12.32,165.53 62.15,-3.19 192.93,-22.38 328.53,-33.98 -75.07,-45.08 -51.25,-131.56 -12.08,-160.19"
            style="fill:#c1c0e6;fill-opacity:1;fill-rule:nonzero;stroke:none"
            id="path176" />
         <path
            d="m 1798.21,2954.76 c 3.34,4.4 9.61,5.26 14.01,1.92 4.4,-3.34 5.26,-9.62 1.91,-14.02 -34.96,-46.01 -36.71,-83.27 -6.69,-115.07 3.8,-4.01 3.61,-10.35 -0.4,-14.14 -4.02,-3.79 -10.35,-3.6 -14.14,0.41 -37.39,39.6 -35.14,87.68 5.31,140.9"
            style="fill:#4b51ac;fill-opacity:1;fill-rule:nonzero;stroke:none"
            id="path178" />
         <path
            d="m 1400.86,2966.04 c 15.43,64.04 93.43,77.62 179.05,27.19 21.63,-12.74 -31.64,-43.09 -32.7,-80.36 -0.65,-22.92 56.42,-47.52 50.22,-75.06 -23.63,-104.89 -79.16,-230.31 -102.76,-277.87 -39.87,-80.35 -64.57,-86.94 -98.69,-40.06 -34.12,46.87 -10.55,382.11 4.88,446.16"
            style="fill:#242d33;fill-opacity:1;fill-rule:nonzero;stroke:none"
            id="path180" />
         <path
            d="m 1539.26,2762.91 c -5.3,1.55 -8.33,7.11 -6.77,12.41 1.55,5.29 7.11,8.33 12.41,6.77 l 50.57,-14.87 c 5.3,-1.55 8.33,-7.11 6.78,-12.41 -1.56,-5.29 -7.12,-8.33 -12.42,-6.77 l -50.57,14.87"
            style="fill:#68747a;fill-opacity:1;fill-rule:nonzero;stroke:none"
            id="path182" />
         <path
            d="m 1520.58,2701.1 c -5.3,1.56 -8.33,7.12 -6.78,12.42 1.56,5.29 7.12,8.33 12.42,6.77 l 50.57,-14.86 c 5.3,-1.56 8.33,-7.11 6.77,-12.42 -1.55,-5.29 -7.11,-8.33 -12.41,-6.77 l -50.57,14.86"
            style="fill:#68747a;fill-opacity:1;fill-rule:nonzero;stroke:none"
            id="path184" />
         <path
            d="m 1529.11,2730.57 c -5.31,1.56 -8.34,7.11 -6.78,12.41 1.56,5.31 7.11,8.33 12.42,6.78 l 50.57,-14.86 c 5.3,-1.56 8.33,-7.12 6.77,-12.41 -1.55,-5.31 -7.11,-8.34 -12.41,-6.78 l -50.57,14.86"
            style="fill:#68747a;fill-opacity:1;fill-rule:nonzero;stroke:none"
            id="path186" />
         <path
            d="m 1403.97,2945.14 c -5.17,1.94 -7.79,7.7 -5.85,12.87 1.94,5.17 7.71,7.8 12.88,5.85 42.27,-15.84 70.38,-1.77 88.33,44.87 1.98,5.15 7.77,7.72 12.93,5.74 5.15,-1.98 7.72,-7.76 5.73,-12.92 -21.75,-56.55 -61.1,-76.24 -114.02,-56.41"
            style="fill:#68747a;fill-opacity:1;fill-rule:nonzero;stroke:none"
            id="path188" />
         <path
            d="m 1396.11,2617.14 c -5.51,-0.37 -10.27,3.81 -10.62,9.32 -0.36,5.52 3.82,10.27 9.33,10.63 66.61,4.32 102.88,-19.08 102.86,-69.48 -0.01,-5.51 -4.49,-10 -10.01,-9.99 -5.52,0 -10,4.48 -9.99,10 0.01,36.91 -25.2,53.17 -81.57,49.52"
            style="fill:#68747a;fill-opacity:1;fill-rule:nonzero;stroke:none"
            id="path190" />
         <path
            d="m 1482.34,2609.21 c -1.69,-5.26 -7.32,-8.16 -12.57,-6.48 -5.26,1.69 -8.16,7.32 -6.48,12.58 31.26,97.6 43.97,162.05 38.45,191.56 -2.78,14.88 -10.5,27.62 -30.08,53.04 -0.93,1.2 -0.93,1.2 -1.86,2.4 -29.07,37.72 -38.36,56.08 -33.47,82.16 1.02,5.43 6.25,9 11.68,7.98 5.43,-1.02 9,-6.24 7.98,-11.67 -3.42,-18.22 4.17,-33.21 29.65,-66.26 0.93,-1.2 0.93,-1.2 1.86,-2.4 21.55,-27.98 30.32,-42.46 33.9,-61.57 6.35,-33.98 -6.77,-100.5 -39.06,-201.34"
            style="fill:#68747a;fill-opacity:1;fill-rule:nonzero;stroke:none"
            id="path192" />
         <path
            d="m 1579.21,2857.28 c 1.18,-1.22 -13.73,13.92 -18.24,18.76 -12.72,13.66 -20.48,24.28 -23.28,34.1 -5.22,18.31 7.76,44.28 37.63,80.55 3.51,4.27 9.81,4.87 14.07,1.37 4.27,-3.52 4.88,-9.82 1.37,-14.09 -25.7,-31.21 -36.54,-52.88 -33.84,-62.34 1.64,-5.76 8.08,-14.58 18.68,-25.96 4.29,-4.6 19,-19.53 17.99,-18.48 9.12,-9.44 11.3,-12.14 11.3,-17.81 l -0.01,-20.83 c 0,-5.53 -4.48,-10 -10,-10 -5.52,0 -10,4.48 -10,10 l 0.01,18.5 c -1.28,1.57 -3.06,3.53 -5.68,6.23 z m 6.35,-7.13 0.04,-0.07 c 0.01,-0.02 0.02,-0.03 0.03,-0.04 -0.02,0.03 -0.05,0.07 -0.07,0.11"
            style="fill:#68747a;fill-opacity:1;fill-rule:nonzero;stroke:none"
            id="path194" />
         <path
            d="m 3546.44,3661.74 c 145.75,-157.78 237.96,-363.2 282.58,-482.27 44.62,-119.08 -353.97,-401.91 -449.16,-285.8 -99.63,121.53 -105.35,223.65 -184.87,404.87 -77.79,-227.51 -92.81,-380.45 -189.92,-437.62 -101.13,-59.54 -514.6,172.67 -469.98,273.89 73.85,167.51 50.11,138.29 175.5,339.38 -28.95,98.66 113.69,323.06 193.35,381.06 117.52,85.55 389.82,193.81 504.32,110.45 49.42,-35.97 145.19,-221.78 138.18,-303.96"
            style="fill:#2c3693;fill-opacity:1;fill-rule:nonzero;stroke:none"
            id="path196" />
         <path
            d="m 3317.87,3288.66 c -2.4,4.98 -0.3,10.96 4.68,13.35 4.98,2.38 10.96,0.28 13.35,-4.7 l 139.48,-290.66 c 2.39,-4.98 0.29,-10.96 -4.69,-13.34 -4.98,-2.4 -10.95,-0.3 -13.34,4.68 z m -627.1,-180.85 c -2.43,-4.97 -8.41,-7.03 -13.37,-4.61 -4.97,2.42 -7.03,8.41 -4.61,13.37 l 136.56,280.09 c 2.42,4.96 8.41,7.02 13.37,4.6 4.97,-2.42 7.03,-8.4 4.61,-13.37 z m 708.03,-209.19 c -5.48,-0.61 -10.43,3.35 -11.03,8.85 -0.6,5.49 3.36,10.43 8.85,11.02 177.28,19.5 311.31,107.96 402.93,265.99 2.77,4.77 8.89,6.41 13.67,3.63 4.77,-2.76 6.4,-8.89 3.63,-13.66 -94.78,-163.49 -234.41,-255.64 -418.05,-275.83 z m -838.15,229.21 c -3.85,3.96 -3.77,10.29 0.18,14.14 3.96,3.86 10.29,3.77 14.15,-0.19 150.95,-155 303.19,-232.15 456.86,-232.15 5.52,0 10,-4.48 10,-10 0,-5.53 -4.48,-10 -10,-10 -159.64,0 -316.76,79.62 -471.19,238.2 z m 640.31,169.98 c -5.34,-1.41 -10.81,1.79 -12.21,7.13 -1.41,5.34 1.79,10.81 7.13,12.2 117.74,30.91 185.18,85.1 204.01,162.4 1.31,5.36 6.72,8.65 12.09,7.34 5.36,-1.31 8.65,-6.72 7.35,-12.08 -20.83,-85.46 -94.18,-144.39 -218.37,-176.99 z m -320.19,167.05 c -5.15,-1.99 -10.94,0.58 -12.93,5.72 -2,5.16 0.57,10.94 5.72,12.93 83.36,32.24 120.01,79.92 112.65,144.35 -0.62,5.49 3.32,10.45 8.8,11.07 5.49,0.63 10.45,-3.32 11.07,-8.8 8.51,-74.5 -34.16,-130.03 -125.31,-165.27 z m -42.24,302.46 c -2.53,4.91 -0.59,10.94 4.32,13.47 4.91,2.52 10.94,0.58 13.46,-4.33 22.7,-44.16 147.35,-69.34 294.71,-61.2 154.38,8.54 286.15,50.17 327.72,109.97 3.15,4.53 9.38,5.66 13.92,2.5 4.53,-3.14 5.65,-9.38 2.5,-13.92 -46.21,-66.48 -182.93,-109.66 -343.04,-118.51 -155.3,-8.59 -285.71,17.75 -313.59,72.02"
            style="fill:#444ba8;fill-opacity:1;fill-rule:nonzero;stroke:none"
            id="path198" />
         <path
            d="m 4201.04,4662.39 c 0.09,-0.47 0.19,-0.94 0.28,-1.42 -218.43,-291.07 -359.24,-457.55 -422.4,-499.43 -36.91,-24.47 -68.23,-34.12 -92.27,-29.9 -13.31,0.12 -28.84,2.11 -46.69,6.08 -113.92,25.35 -395.79,418.14 -420.36,485.56 -24.56,67.42 -12.09,149.16 101.8,123.82 94.55,-21.05 278.26,-263.66 364.96,-404.62 96.43,112.72 300.06,267.37 400.18,341.39 -22.37,20.94 -38.05,49.85 -40.07,78.64 -1.35,19.41 29.78,9.06 29.78,27.25 0,23.79 10.34,74.73 47.63,77.34 56.73,3.97 131.74,-47.9 135.7,-104.57 3.04,-43.47 -21.41,-82.51 -58.54,-100.14"
            style="fill:#f89b82;fill-opacity:1;fill-rule:nonzero;stroke:none"
            id="path200" />
         <path
            d="m 3680.54,4345.83 c 4.55,3.14 10.77,2 13.92,-2.54 3.14,-4.54 2,-10.77 -2.54,-13.91 -23.14,-16.01 -34.39,-36.76 -34.39,-63.17 0,-5.52 -4.48,-10 -10,-10 -5.52,0 -10,4.48 -10,10 0,33.08 14.55,59.93 43.01,79.62"
            style="fill:#ee4131;fill-opacity:1;fill-rule:nonzero;stroke:none"
            id="path202" />
         <path
            d="m 4144.95,4781.55 c -15.58,10.9 -44.73,4.73 -87.31,-21.18 -4.72,-2.87 -10.87,-1.37 -13.74,3.35 -2.87,4.71 -1.38,10.87 3.35,13.74 48.71,29.63 85.06,37.33 109.17,20.48 15.4,-10.78 16.59,-25.78 0.96,-35.33 -3.92,-2.39 -9.1,-4.59 -15.58,-6.62 4.57,-4.24 6.97,-9.79 6.97,-16.82 0,-5.52 -4.47,-9.99 -10,-9.99 -5.52,0 -10,4.47 -10,10 0,1.6 -0.84,2.68 -4.35,4.19 -5.47,2.34 -14.66,3.65 -27.33,3.65 -12.41,0 -13.7,18.14 -1.41,19.9 26.49,3.78 43.87,8.23 51.28,12.76 -0.29,0.6 -1.03,1.18 -2.01,1.87 z m 3.92,-0.46 c 0.06,0.06 0.1,0.11 0.13,0.16 -0.01,-0.02 -0.02,-0.04 -0.03,-0.05 l -0.1,-0.11"
            style="fill:#ee4131;fill-opacity:1;fill-rule:nonzero;stroke:none"
            id="path204" />
         <path
            d="m 4121.17,4751.78 c -4.68,2.93 -6.1,9.11 -3.17,13.78 2.93,4.68 9.1,6.11 13.78,3.18 43.56,-27.25 70.67,-36.29 77.53,-30.57 14.26,11.89 27.06,19.1 35.41,22.44 5.12,2.05 10.94,-0.44 12.99,-5.56 2.06,-5.13 -0.43,-10.95 -5.56,-13 -1.47,-0.59 -4.42,-1.99 -8.48,-4.27 -6.92,-3.91 -14.23,-8.87 -21.55,-14.97 -16.94,-14.12 -49.32,-3.32 -100.95,28.97"
            style="fill:#ee4131;fill-opacity:1;fill-rule:nonzero;stroke:none"
            id="path206" />
         <path
            d="m 2604.18,3807.86 c -0.47,-0.07 -0.95,-0.13 -1.43,-0.2 -275.13,238.22 -431.38,390.29 -468.76,456.22 -21.84,38.53 -29.28,70.44 -23.38,94.13 1.05,13.27 4.11,28.62 9.31,46.16 33.24,111.87 444.73,365.65 513.7,385.46 68.97,19.8 149.65,1.66 116.42,-110.19 -27.58,-92.85 -282.42,-259.19 -429.09,-335.84 104.97,-103.33 243.8,-314.95 311.21,-420.77 18.1,15.91 41.84,25.55 67.83,25.55 43.32,0 11.66,-34.61 31.42,-42.52 29.75,-11.91 71.44,-26.52 71.44,-60.43 0,-56.87 -46.05,-102.96 -102.86,-102.96 -43.57,0 -80.81,27.11 -95.81,65.39"
            style="fill:#f89b82;fill-opacity:1;fill-rule:nonzero;stroke:none"
            id="path208" />
         <path
            d="m 2275.88,4324.88 c -5.34,-1.41 -10.81,1.78 -12.22,7.12 -1.4,5.34 1.78,10.81 7.13,12.22 l 56.51,14.88 c 5.34,1.4 10.81,-1.78 12.22,-7.12 1.41,-5.34 -1.79,-10.81 -7.12,-12.22 l -56.52,-14.88"
            style="fill:#ee4131;fill-opacity:1;fill-rule:nonzero;stroke:none"
            id="path210" />
         <path
            d="m 2652.55,4496.3 c -40.56,-27.87 -81.95,-50.09 -117.57,-63.45 -106.46,-39.89 -181.93,134.54 -148.69,246.42 33.24,111.88 260.98,114.89 329.95,134.69 14.41,4.14 29.34,6.62 43.63,6.93 126.24,89.05 478.95,35.31 596.2,-58.99 13.73,-11.04 23.69,-24.91 30.79,-41.26 96.59,-53.91 192.49,-165.37 207.04,-201.7 17.87,-44.64 -68.35,-252.89 -145.32,-231.94 -17.27,4.71 -37.09,20.83 -57.72,43.79 3.57,-105.04 25.09,-217.13 96.09,-323.71 144.89,-217.52 -464.03,-327.47 -645.48,-190.53 -64.21,48.47 74.36,119.08 -77.34,357.24 -67.94,106.68 -105.03,217.61 -111.58,322.51"
            style="fill:#698bcf;fill-opacity:1;fill-rule:nonzero;stroke:none"
            id="path212" />
         <path
            d="m 3405.3,4335.65 c -1.03,-5.43 -6.27,-8.98 -11.69,-7.95 -5.43,1.04 -8.99,6.27 -7.95,11.7 14.15,74.25 14.15,164.5 -0.09,270.67 -0.74,5.48 3.11,10.51 8.58,11.25 5.47,0.74 10.51,-3.11 11.24,-8.58 14.51,-108.16 14.51,-200.51 -0.09,-277.09 z m -501.57,445.48 c -3.28,4.45 -2.32,10.71 2.13,13.98 4.45,3.28 10.71,2.32 13.98,-2.14 47.73,-64.96 102.07,-96.23 143.86,-91.22 41.78,5.01 83.08,22.12 88.31,57.02 0.82,5.45 5.91,9.22 11.37,8.4 5.46,-0.82 9.23,-5.9 8.41,-11.37 -6.67,-44.5 -56.34,-69.62 -106.36,-73.98 -49.85,-4.33 -110.28,29.32 -161.7,99.31 z m -83.05,-945.34 c -2.53,4.91 -0.59,10.94 4.32,13.46 4.92,2.53 10.94,0.59 13.47,-4.32 23.98,-46.67 170.33,-81.56 321.94,-74.58 174.71,8.04 305.96,65.81 337.84,165.35 1.68,5.26 7.31,8.15 12.57,6.47 5.26,-1.69 8.16,-7.31 6.47,-12.57 -35.17,-109.84 -173.79,-170.84 -355.97,-179.23 -159.09,-7.33 -311.68,29.05 -340.64,85.42 z m -161.46,650.94 c -4.73,-2.84 -10.88,-1.3 -13.72,3.42 -2.84,4.74 -1.31,10.88 3.43,13.73 48.45,29.09 79.28,53.2 92.13,71.59 3.17,4.52 9.4,5.62 13.93,2.46 4.53,-3.17 5.63,-9.41 2.47,-13.93 -14.91,-21.31 -47.54,-46.83 -98.24,-77.27 z m -264.29,232.58 c 2.05,5.13 7.87,7.63 12.99,5.58 5.13,-2.05 7.63,-7.87 5.58,-13 -49.76,-124.51 -21.67,-215.42 84.91,-276.38 4.8,-2.74 6.46,-8.84 3.72,-13.64 -2.74,-4.79 -8.85,-6.45 -13.64,-3.72 -115.52,66.07 -146.92,167.67 -93.56,301.16 z m 1189.13,-204.8 c 0.78,5.47 5.84,9.27 11.31,8.48 5.47,-0.78 9.27,-5.85 8.49,-11.3 -18.34,-128.23 -64.91,-206.8 -140.49,-234.08 -5.19,-1.87 -10.92,0.82 -12.8,6.02 -1.87,5.19 0.82,10.93 6.01,12.8 67.33,24.29 110.08,96.44 127.48,218.08"
            style="fill:#ffffff;fill-opacity:1;fill-rule:nonzero;stroke:none"
            id="path214" />
         <path
            d="m 2991.44,4554.79 c 23.55,-76.45 54.8,-105.21 93.74,-86.25 38.95,18.96 97.53,80.68 175.76,185.16 -48.24,-171.74 -108.38,-258.93 -180.41,-261.56 -72.03,-2.62 -101.73,51.6 -89.09,162.65"
            style="fill:#ffffff;fill-opacity:1;fill-rule:nonzero;stroke:none"
            id="path216" />
         <path
            d="m 3125.15,4881.57 c 0.25,-50.19 4.67,-90.47 13.28,-120.86 26.58,-93.85 -151.76,-73.45 -198.21,0 -28.75,45.46 -30.8,138.8 -6.15,280 -59.5,77.54 -101.52,166.19 -101.52,230.94 0,142.76 118,258.49 263.57,258.49 145.57,0 263.58,-115.73 263.58,-258.49 0,-142.76 -31.8,-401.62 -177.37,-401.62 -18.3,0 -37.54,4.1 -57.18,11.54"
            style="fill:#f89b75;fill-opacity:1;fill-rule:nonzero;stroke:none"
            id="path218" />
         <path
            d="m 2695.25,5381.27 -33.71,5.5 c -5.45,0.89 -9.15,6.03 -8.26,11.48 0.89,5.45 6.03,9.15 11.48,8.26 l 24.91,-4.07 -22.72,13.02 c -4.79,2.74 -6.45,8.85 -3.7,13.64 2.74,4.8 8.85,6.46 13.64,3.71 l 22.41,-12.83 c 0.69,3.33 1.48,6.7 2.37,10.11 23.79,91.29 80.31,123.05 169.55,95.26 -49.58,103.21 -6.94,183.59 127.9,241.14 134.85,57.55 227.06,11.91 276.64,-136.94 66.95,54.3 131.56,71.28 193.81,50.92 l 7.79,26.34 c 1.57,5.3 7.13,8.32 12.43,6.75 5.29,-1.56 8.32,-7.12 6.75,-12.42 l -8.26,-27.95 c 13.83,-6.24 27.55,-14.35 41.15,-24.34 l 48.29,52.93 c 3.73,4.08 10.05,4.37 14.13,0.65 4.08,-3.72 4.37,-10.05 0.65,-14.13 l -47.33,-51.88 c 1.7,-1.44 3.4,-2.91 5.1,-4.42 l 35.59,21.68 c 4.72,2.88 10.87,1.38 13.74,-3.33 2.88,-4.72 1.38,-10.87 -3.34,-13.75 l -30.85,-18.8 c 11.61,-11.54 23.13,-24.5 34.57,-38.86 151.7,-190.53 -133.85,-413.81 -237.96,-321.52 0,39.7 -20.82,85.34 -62.47,136.94 -13.88,-47.63 -45.61,-81.37 -95.18,-101.21 -33.11,-13.26 -89.82,5.12 -151.7,-11.91 -9.9,-2.73 9.59,-72.61 0,-92.29 -7.95,-16.31 -18.15,-1.27 -26.78,0 -13.36,1.97 -14.87,38.7 -53.54,80.38 -38.67,41.68 -121.95,-35.73 -14.87,-133.97 0,-119.07 -104.11,-92.29 -145.76,-68.47 -41.64,23.82 -20.82,95.26 -20.82,122.06 0,23.42 -95.5,85.54 -95.65,192.32"
            style="fill:#242d33;fill-opacity:1;fill-rule:nonzero;stroke:none"
            id="path220" />
         <path
            d="m 3135.95,5257.42 h 95.19 v -29.77 h -95.19 v 29.77"
            style="fill:#252d34;fill-opacity:1;fill-rule:nonzero;stroke:none"
            id="path222" />
         <path
            d="m 3289.41,5271 h 95.19 v -29.77 h -95.19 V 5271"
            style="fill:#252d34;fill-opacity:1;fill-rule:nonzero;stroke:none"
            id="path224" />
         <path
            d="m 3206.52,5197.88 v 0 c 8.21,0 14.87,-6.66 14.87,-14.87 v -17.89 c 0,-8.21 -6.66,-14.87 -14.87,-14.87 v 0 c -8.21,0 -14.87,6.66 -14.87,14.87 v 17.89 c 0,8.21 6.66,14.87 14.87,14.87"
            style="fill:#1d1f24;fill-opacity:1;fill-rule:nonzero;stroke:none"
            id="path226" />
         <path
            d="m 3339.98,5211.46 v 0 c 8.21,0 14.87,-6.66 14.87,-14.88 v -17.88 c 0,-8.22 -6.66,-14.88 -14.87,-14.88 v 0 c -8.21,0 -14.87,6.66 -14.87,14.88 v 17.88 c 0,8.22 6.66,14.88 14.87,14.88"
            style="fill:#1d1f24;fill-opacity:1;fill-rule:nonzero;stroke:none"
            id="path228" />
         <path
            d="m 3276.15,5112.16 c -22.43,14.97 -26.75,53.84 -16.21,117.13 0.91,5.45 6.06,9.13 11.51,8.23 5.44,-0.91 9.13,-6.06 8.22,-11.51 -9.29,-55.79 -5.68,-88.37 7.59,-97.21 16.33,-10.9 30.4,-16.19 42.04,-16.19 8.17,0 12.89,-9.26 8.09,-15.88 -16.92,-23.28 -34.21,-38.41 -52.17,-45.15 -13.78,-5.18 -32.79,-5.14 -46.32,-0.25 -18.69,6.76 -24.89,23.32 -9.13,38.31 4,3.81 10.33,3.66 14.14,-0.35 3.81,-3.99 3.65,-10.33 -0.35,-14.13 -3.66,-3.48 -3.91,-2.83 2.14,-5.02 9.11,-3.29 23.22,-3.32 32.49,0.16 10.51,3.94 21.41,12.25 32.57,25.02 -10.89,3.07 -22.41,8.7 -34.61,16.84"
            style="fill:#ee4131;fill-opacity:1;fill-rule:nonzero;stroke:none"
            id="path230" />
         <path
            d="m 2944.41,5260.57 c 5.03,2.29 10.96,0.07 13.25,-4.96 2.29,-5.03 0.06,-10.96 -4.96,-13.25 -15.7,-7.14 -17.62,-19.31 -4.38,-42.5 2.73,-4.8 1.06,-10.9 -3.73,-13.64 -4.8,-2.74 -10.9,-1.07 -13.64,3.73 -18.49,32.38 -14.46,57.91 13.46,70.62"
            style="fill:#ee4131;fill-opacity:1;fill-rule:nonzero;stroke:none"
            id="path232" />
         <path
            d="m 3125.72,4894.54 c 4.75,-2.81 6.34,-8.94 3.54,-13.69 -2.8,-4.76 -8.93,-6.35 -13.69,-3.55 -34.55,20.34 -59.12,38.79 -73.85,55.63 -3.63,4.16 -3.2,10.47 0.95,14.11 4.16,3.63 10.48,3.21 14.11,-0.95 13.05,-14.92 36.07,-32.2 68.94,-51.55"
            style="fill:#ee4131;fill-opacity:1;fill-rule:nonzero;stroke:none"
            id="path234" />
         <path
            d="m 3177.6,5037.13 95.18,-50.62 c -19.83,-25.8 -37.68,-35.72 -53.54,-29.77 -15.87,5.96 -29.75,32.75 -41.64,80.39"
            style="fill:#ffffff;fill-opacity:1;fill-rule:nonzero;stroke:none"
            id="path236" />
         <path
            d="m 9590.11,4528.17 c 296.24,150.34 444.39,243.59 444.39,279.78 0,36.17 -148.15,129.42 -444.39,279.76 v -559.54"
            style="fill:#b4e06f;fill-opacity:1;fill-rule:nonzero;stroke:none"
            id="path238" />
         <path
            d="m 9590.11,4528.17 c 296.24,150.34 444.39,243.59 444.39,279.78 0,36.17 -148.15,129.42 -444.39,279.76 z"
            style="fill:none;stroke:#235c2b;stroke-width:20;stroke-linecap:butt;stroke-linejoin:miter;stroke-miterlimit:4;stroke-dasharray:none;stroke-opacity:1"
            id="path240" />
         <path
            d="m 9590.11,3787.94 c 296.24,150.34 444.39,243.59 444.39,279.76 0,36.18 -148.15,129.44 -444.39,279.78 v -559.54"
            style="fill:#b4e06f;fill-opacity:1;fill-rule:nonzero;stroke:none"
            id="path242" />
         <path
            d="m 9590.11,3787.94 c 296.24,150.34 444.39,243.59 444.39,279.76 0,36.18 -148.15,129.44 -444.39,279.78 z"
            style="fill:none;stroke:#235c2b;stroke-width:20;stroke-linecap:butt;stroke-linejoin:miter;stroke-miterlimit:4;stroke-dasharray:none;stroke-opacity:1"
            id="path244" />
         <path
            d="m 9590.11,2973.68 c 296.24,150.33 444.39,243.59 444.39,279.76 0,36.18 -148.15,129.44 -444.39,279.78 v -559.54"
            style="fill:#b4e06f;fill-opacity:1;fill-rule:nonzero;stroke:none"
            id="path246" />
         <path
            d="m 9590.11,2973.68 c 296.24,150.33 444.39,243.59 444.39,279.76 0,36.18 -148.15,129.44 -444.39,279.78 z"
            style="fill:none;stroke:#235c2b;stroke-width:20;stroke-linecap:butt;stroke-linejoin:miter;stroke-miterlimit:4;stroke-dasharray:none;stroke-opacity:1"
            id="path248" />
         <path
            d="m 9590.11,5249.13 c 296.24,150.33 444.39,243.59 444.39,279.77 0,36.17 -148.15,129.43 -444.39,279.77 v -559.54"
            style="fill:#b4e06f;fill-opacity:1;fill-rule:nonzero;stroke:none"
            id="path250" />
         <path
            d="m 9590.11,5249.13 c 296.24,150.33 444.39,243.59 444.39,279.77 0,36.17 -148.15,129.43 -444.39,279.77 z"
            style="fill:none;stroke:#235c2b;stroke-width:20;stroke-linecap:butt;stroke-linejoin:miter;stroke-miterlimit:4;stroke-dasharray:none;stroke-opacity:1"
            id="path252" />
         <path
            d="m 8646.1,5275.68 h -843.63 c -110.46,0 -200,89.54 -200,200 v 632.79 c 0,12.15 1.08,24.08 3.18,35.68 -1.03,7.57 -1.56,15.27 -1.56,23.08 0,106.1 97.63,192.1 218.06,192.1 42.26,0 81.73,-10.6 115.14,-28.94 l 1080.85,158.52 c 300.54,44.08 579.91,-163.83 623.99,-464.37 3.88,-26.42 5.82,-53.1 5.82,-79.81 V 5733.29 3435.21 c 0,-376.88 211.89,-721.76 548.15,-892.07 763,-386.52 1144.5,-619.63 1144.5,-699.34 0,-145.38 -1755.3,-112.46 -2946.16,85.13 -1190.85,197.6 -861.81,1671.78 -253.61,2446.22 255.58,325.44 424,625.61 505.27,900.53"
            style="fill:#46b53d;fill-opacity:1;fill-rule:nonzero;stroke:none"
            id="path254" />
         <path
            d="m 8861.74,6622.4 c 202.34,252.43 568.75,307.6 837.54,119.39 268.79,-188.21 342.22,-551.39 174.26,-827.86 l 1.63,-1.15 c 38.44,-26.91 47.79,-79.91 20.87,-118.35 -26.92,-38.45 -79.91,-47.79 -118.35,-20.87 L 8581.12,6611.4 c -38.44,26.92 -47.78,79.9 -20.87,118.35 26.93,38.45 79.92,47.8 118.36,20.87 l 183.13,-128.22"
            style="fill:#f1b134;fill-opacity:1;fill-rule:nonzero;stroke:none"
            id="path256" />
         <path
            d="m 8859.77,6615.34 696.84,-523.9"
            style="fill:none;stroke:#ffffff;stroke-width:20;stroke-linecap:round;stroke-linejoin:round;stroke-miterlimit:4;stroke-dasharray:none;stroke-opacity:1"
            id="path258" />
         <path
            d="m 9042.88,6691.64 c 162.76,81.38 288.23,108.51 376.4,81.38 88.16,-27.13 55.94,-130.55 -96.64,-310.27"
            style="fill:none;stroke:#ffffff;stroke-width:20;stroke-linecap:round;stroke-linejoin:round;stroke-miterlimit:4;stroke-dasharray:none;stroke-opacity:1"
            id="path260" />
         <path
            d="m 9485.4,6333.49 c 98.34,204.86 167.85,292.03 208.55,261.51 61.03,-45.78 254.32,-295.01 167.85,-508.65"
            style="fill:none;stroke:#ffffff;stroke-width:20;stroke-linecap:round;stroke-linejoin:round;stroke-miterlimit:4;stroke-dasharray:none;stroke-opacity:1"
            id="path262" />
         <path
            d="m 7598.61,2134.75 v 340.6 c 0,425.47 317.15,840.09 770.39,770.39 453.26,-69.7 409.14,-824.75 0,-1020.91 -88.62,-42.49 -68.61,-90.08 -68.61,-185.06 0,-41.42 0,-82.84 0,-124.27 v 0 c 0,-93.88 -76.11,-170 -170,-170 h -953.46 v 0 c 0,214.98 174.27,389.25 389.25,389.25 h 32.43"
            style="fill:#46b53d;fill-opacity:1;fill-rule:nonzero;stroke:none"
            id="path264" />
         <path
            d="M 7611.87,5680.37 H 8737.03"
            style="fill:none;stroke:#235c2b;stroke-width:20;stroke-linecap:round;stroke-linejoin:round;stroke-miterlimit:4;stroke-dasharray:none;stroke-opacity:1"
            id="path266" />
         <path
            d="m 8566.53,5673.38 c 58.86,-115.98 95.36,-173.96 109.52,-173.96 14.16,0 50.67,57.98 109.53,173.96 h -219.05"
            style="fill:#fffdf7;fill-opacity:1;fill-rule:nonzero;stroke:none"
            id="path268" />
         <path
            d="m 8368.61,5673.38 c 58.85,-115.98 95.36,-173.96 109.52,-173.96 14.16,0 50.67,57.98 109.53,173.96 h -219.05"
            style="fill:#fffdf7;fill-opacity:1;fill-rule:nonzero;stroke:none"
            id="path270" />
         <path
            d="m 8176.15,5673.38 c 58.85,-115.98 95.36,-173.96 109.52,-173.96 14.16,0 50.67,57.98 109.53,173.96 h -219.05"
            style="fill:#fffdf7;fill-opacity:1;fill-rule:nonzero;stroke:none"
            id="path272" />
         <path
            d="m 7983.69,5673.38 c 58.85,-115.98 95.36,-173.96 109.52,-173.96 14.16,0 50.67,57.98 109.52,173.96 h -219.04"
            style="fill:#fffdf7;fill-opacity:1;fill-rule:nonzero;stroke:none"
            id="path274" />
         <path
            d="m 7791.23,5673.38 c 58.85,-115.98 95.36,-173.96 109.52,-173.96 14.16,0 50.67,57.98 109.52,173.96 h -219.04"
            style="fill:#fffdf7;fill-opacity:1;fill-rule:nonzero;stroke:none"
            id="path276" />
         <path
            d="m 7598.77,5673.38 c 58.85,-115.98 95.35,-173.96 109.52,-173.96 14.16,0 50.67,57.98 109.51,173.96 h -219.03"
            style="fill:#fffdf7;fill-opacity:1;fill-rule:nonzero;stroke:none"
            id="path278" />
         <path
            d="m 8869.84,6365.47 c 32.47,0 58.79,-43.09 58.79,-96.24 0,-53.14 -26.32,-96.23 -58.79,-96.23 -32.47,0 -58.79,43.09 -58.79,96.23 0,53.15 26.32,96.24 58.79,96.24"
            style="fill:#242d33;fill-opacity:1;fill-rule:nonzero;stroke:none"
            id="path280" />
         <path
            d="m 7794,6281.28 c 32.47,0 58.79,-26.32 58.79,-58.79 0,-32.47 -26.32,-58.79 -58.79,-58.79 -32.47,0 -58.79,26.32 -58.79,58.79 0,32.47 26.32,58.79 58.79,58.79"
            style="fill:#242d33;fill-opacity:1;fill-rule:nonzero;stroke:none"
            id="path282" />
         <path
            d="m 8642.21,5273.82 h 470.34 c 98.7,15.39 148.05,58.86 148.05,130.41"
            style="fill:none;stroke:#235c2b;stroke-width:20;stroke-linecap:round;stroke-linejoin:round;stroke-miterlimit:4;stroke-dasharray:none;stroke-opacity:1"
            id="path284" />
         <path
            d="m 9444.34,4446.79 c -18.34,0 -33.22,17.85 -33.22,39.86 0,22.02 14.88,39.86 33.22,39.86 18.35,0 33.22,-17.84 33.22,-39.86 0,-22.01 -14.87,-39.86 -33.22,-39.86 z m 383.08,-2336.82 c 2.13,-24.32 -14.78,-45.66 -37.78,-47.67 -23,-2.01 -43.37,16.07 -45.5,40.38 -2.13,24.31 14.8,45.65 37.79,47.66 23,2.01 43.37,-16.07 45.49,-40.37 z m 204.68,-169.88 c -30.7,-23.14 -78.13,-12.03 -105.9,24.83 -27.76,36.84 -25.38,85.48 5.32,108.62 30.72,23.15 78.08,12.03 105.88,-24.82 27.8,-36.86 25.4,-85.49 -5.3,-108.63 z m -453.57,1555.85 c -19.24,0 -34.84,18.71 -34.84,41.8 0,23.1 15.6,41.81 34.84,41.81 19.23,0 34.83,-18.71 34.83,-41.81 0,-23.09 -15.6,-41.8 -34.83,-41.8 z m -273.52,1101.43 c -30.65,0 -55.52,29.83 -55.52,66.62 0,36.8 24.87,66.62 55.52,66.62 30.66,0 55.52,-29.82 55.52,-66.62 0,-36.79 -24.86,-66.62 -55.52,-66.62 z m 594.91,-2823.26 c -103.7,5.5 -209.61,12.1 -316.48,19.81 -13.83,25.86 -19.42,54.84 -14.28,84 14.07,79.8 103.11,130.8 198.87,113.91 95.75,-16.88 161.97,-95.25 147.9,-175.06 -2.72,-15.38 -8.22,-29.69 -16.01,-42.66 z m -251.97,2205.72 v -342.27 c -11.09,-3.22 -22.68,-4.92 -34.59,-4.92 -81.03,0 -146.72,78.82 -146.72,176.06 0,97.23 65.69,176.05 146.72,176.05 11.91,0 23.5,-1.7 34.59,-4.92"
            style="fill:#3fa63c;fill-opacity:1;fill-rule:nonzero;stroke:none"
            id="path286" />
         <path
            d="m 8356.12,4674.72 c 193.34,-224.75 323.39,-644.3 323.39,-1124.78 0,-475.17 -127.19,-890.74 -317,-1117.26 328.84,-159.14 656.14,-350.41 746.26,-381.61 109.29,-37.82 377.27,-141.28 588.5,-264.97 -439.36,28.69 -902.91,76.48 -1302.83,142.83 -1190.85,197.6 -861.81,1671.78 -253.61,2446.22 80.38,102.36 152.15,202.21 215.29,299.57"
            style="fill:#b4e06f;fill-opacity:1;fill-rule:nonzero;stroke:none"
            id="path288" />
         <path
            d="m 7906.62,2059.97 v 340.59 c 0,425.47 317.14,840.09 770.38,770.38 453.25,-69.69 409.14,-824.73 0,-1020.89 -88.62,-42.5 -68.61,-90.08 -68.61,-185.06 0,-41.43 0,-82.85 0,-124.27 v 0 c 0,-93.89 -76.11,-170 -170,-170 h -953.46 v 0 c 0,214.97 174.27,389.25 389.25,389.25 h 32.44"
            style="fill:#46b53d;fill-opacity:1;fill-rule:nonzero;stroke:none"
            id="path290" />
         <path
            d="M 8357.58,4450.71 H 8439 v -305.8 h -81.42 v 305.8"
            style="fill:#ea8714;fill-opacity:1;fill-rule:nonzero;stroke:none"
            id="path292" />
         <path
            d="M 8357.58,4450.71 H 8439 v -305.8 h -81.42 z"
            style="fill:none;stroke:#ea8714;stroke-width:20;stroke-linecap:butt;stroke-linejoin:miter;stroke-miterlimit:4;stroke-dasharray:none;stroke-opacity:1"
            id="path294" />
         <path
            d="m 7999.1,4937.86 865.95,60.13 c 55.09,3.83 102.86,-37.73 106.68,-92.83 0.16,-2.3 0.24,-4.62 0.24,-6.92 V 4476 c 0,-55.22 -44.77,-100 -100,-100 -2.31,0 -4.62,0.08 -6.92,0.25 l -865.95,60.12 c -52.41,3.65 -93.06,47.23 -93.06,99.77 v 301.96 c 0,52.54 40.65,96.12 93.06,99.76"
            style="fill:#f1b134;fill-opacity:1;fill-rule:nonzero;stroke:none"
            id="path296" />
         <path
            d="m 7999.1,4937.86 865.95,60.13 c 55.09,3.83 102.86,-37.73 106.68,-92.83 0.16,-2.3 0.24,-4.62 0.24,-6.92 V 4476 c 0,-55.22 -44.77,-100 -100,-100 -2.31,0 -4.62,0.08 -6.92,0.25 l -865.95,60.12 c -52.41,3.65 -93.06,47.23 -93.06,99.77 v 301.96 c 0,52.54 40.65,96.12 93.06,99.76 z"
            style="fill:none;stroke:#ea8714;stroke-width:20;stroke-linecap:butt;stroke-linejoin:miter;stroke-miterlimit:4;stroke-dasharray:none;stroke-opacity:1"
            id="path298" />
         <path
            d="m 8750.92,4767.81 -41.71,-1.35 v -70.81 l 41.71,0.25 c 19.18,0.13 31,12.69 31,36.32 0,23.87 -11.82,36.2 -31,35.59 z m 1.28,-137.65 -42.99,0.75 v -102.74 l -53.38,2.95 v 298.16 l 95.89,5.39 c 55.29,3.11 84.54,-37.53 84.54,-101.41 0,-62.74 -29.25,-104.05 -84.06,-103.1 z m -245.64,131.61 c -36.43,-1.2 -62.32,-34.61 -62.32,-81.68 0,-47.08 25.89,-80.45 62.32,-81.62 36.44,-1.15 62.34,32.23 62.34,81.68 0,49.46 -25.9,82.82 -62.34,81.62 z m 0,64.35 c 69.05,4.02 117.95,-57.95 117.95,-145.94 0,-87.98 -48.9,-150.01 -117.95,-146.06 -69.03,3.95 -117.94,65.8 -117.94,145.94 0,80.14 48.91,142.04 117.94,146.06 z m -124.81,-12.24 v -59.26 l -66.16,-2.09 v -202.65 l -53.38,2.95 v 198.02 l -66.32,-2.09 v 54.67 z m -202.8,-32.93 -23.81,-48.55 c -15.99,9.92 -37.88,19.15 -64.09,18.25 -20.3,-0.68 -35.16,-8.3 -35.16,-22.01 0,-14.54 21.26,-17.69 46.02,-21.88 l 9.28,-1.57 c 43.47,-7.6 70.79,-29.62 70.79,-69.76 0,-58.37 -45.87,-80.11 -93.81,-77.37 -37.23,2.13 -73.67,14.09 -98.44,34.11 l 26.69,42.95 c 17.1,-12.3 40.75,-25.18 72.23,-26.23 20.14,-0.66 35.48,6.17 35.48,21.02 0,14.33 -15.02,18.65 -44.27,23.75 l -11.19,1.96 c -46.02,7.82 -70.96,28.9 -70.15,69.39 0.8,43.75 37.88,73.55 90.13,76.6 30.21,1.76 56.42,-2.06 90.3,-20.66"
            style="fill:#f14a1c;fill-opacity:1;fill-rule:nonzero;stroke:none"
            id="path300" />
         <path
            d="m 8712.89,4301.28 c -86.36,32.08 -133.24,32.08 -140.64,0 -7.41,-32.07 -7.41,-108.57 0,-229.48 l -81.43,126.77 c -9.87,38.86 -20.98,58.29 -33.31,58.29 -18.51,0 -11.1,-22.21 -18.51,-29.61 -4.93,-4.93 -33.31,-9.86 -85.12,-14.8 l -11.11,-13.88 11.11,-23.13 v -51.82 l 33.31,-14.81 51.81,7.41 c 24.68,-34.54 37.02,-51.82 37.02,-51.82 0,0 99.93,-114.74 136.94,-92.53 37.01,22.21 40.71,166.55 114.74,136.94 49.34,-19.73 44.41,44.42 -14.81,192.47"
            style="fill:#46b53d;fill-opacity:1;fill-rule:nonzero;stroke:none"
            id="path302" />
         <path
            d="m 8715.54,4306.11 c -101.17,29.61 -151.75,9.87 -151.75,-59.22 0,-69.09 6.16,-132.01 18.5,-188.76 -61.68,80.68 -92.52,131.27 -92.52,151.75 0,29.61 -48.12,81.42 -48.12,18.51 0,-33.81 -96.23,-7.41 -96.23,-18.51 0,-11.1 -11.1,-40.71 22.21,-40.71 22.2,0 38.24,0 48.11,0"
            style="fill:none;stroke:#235c2b;stroke-width:20;stroke-linecap:round;stroke-linejoin:round;stroke-miterlimit:4;stroke-dasharray:none;stroke-opacity:1"
            id="path304" />
         <path
            d="m 8356.52,4165.47 c -9.87,-41.95 0,-60.45 29.61,-55.52 29.61,4.93 50.58,8.63 62.92,11.1 32.07,-61.69 56.75,-99.93 74.03,-114.74 25.9,-22.2 77.72,-48.11 92.53,-29.6 14.8,18.5 44.41,74.02 44.41,125.84"
            style="fill:none;stroke:#235c2b;stroke-width:20;stroke-linecap:round;stroke-linejoin:round;stroke-miterlimit:4;stroke-dasharray:none;stroke-opacity:1"
            id="path306" />
         <path
            d="m 8261.28,3083.59 c 120.91,115.97 324.47,125.84 610.69,29.61"
            style="fill:none;stroke:#235c2b;stroke-width:20;stroke-linecap:round;stroke-linejoin:round;stroke-miterlimit:4;stroke-dasharray:none;stroke-opacity:1"
            id="path308" />
         <path
            d="m 8604.24,1976.27 c -6.57,91.73 14.82,151.18 64.17,178.32 74.02,40.71 350.36,139.98 394.77,239.91"
            style="fill:none;stroke:#235c2b;stroke-width:20;stroke-linecap:round;stroke-linejoin:round;stroke-miterlimit:4;stroke-dasharray:none;stroke-opacity:1"
            id="path310" />
         <path
            d="m 7499.86,1766.08 c 24.68,170.25 160.38,255.38 407.13,255.38 22.21,214.67 -14.8,536.68 62.92,699.53"
            style="fill:none;stroke:#235c2b;stroke-width:20;stroke-linecap:round;stroke-linejoin:round;stroke-miterlimit:4;stroke-dasharray:none;stroke-opacity:1"
            id="path312" />
         <path
            d="m 7613.5,2650.67 c 69.09,-249.22 164.08,-423.17 284.99,-521.87"
            style="fill:none;stroke:#235c2b;stroke-width:20;stroke-linecap:round;stroke-linejoin:round;stroke-miterlimit:4;stroke-dasharray:none;stroke-opacity:1"
            id="path314" />
         <path
            d="m 8122.95,2648.28 c -51.83,26.4 -68.16,98.24 -36.47,160.44 31.69,62.2 99.41,91.22 151.24,64.8 51.84,-26.4 68.16,-98.24 36.47,-160.44 -31.69,-62.2 -99.4,-91.22 -151.24,-64.8 z m 208.01,186.82 c -30.67,0 -55.52,29.83 -55.52,66.62 0,36.8 24.85,66.63 55.52,66.63 30.66,0 55.51,-29.83 55.51,-66.63 0,-36.79 -24.85,-66.62 -55.51,-66.62"
            style="fill:#3fa63c;fill-opacity:1;fill-rule:nonzero;stroke:none"
            id="path316" />
         <path
            d="m 9223.34,1823.93 17.97,57.64 c 1.65,5.27 7.25,8.21 12.53,6.57 5.27,-1.65 8.21,-7.25 6.56,-12.53 l -16.71,-53.59 c -6.79,0.63 -13.57,1.27 -20.35,1.91 z m -403.19,43.89 71.89,230.53 c 1.64,5.27 7.25,8.21 12.52,6.57 5.27,-1.64 8.21,-7.25 6.57,-12.52 l -70.81,-227.07 c -6.73,0.83 -13.45,1.65 -20.17,2.49 z m -1045.34,406.9 134.25,-13.94 c 5.5,-0.51 9.54,-5.38 9.04,-10.88 -0.51,-5.5 -5.39,-9.54 -10.88,-9.03 l -115.66,12.01 c -5.71,7.18 -11.3,14.47 -16.75,21.84 z m -177.78,516.86 328.14,-30.35 c 5.49,-0.51 9.54,-5.38 9.03,-10.88 -0.51,-5.5 -5.37,-9.54 -10.88,-9.04 l -324.56,30.02 c -0.63,6.73 -1.2,13.48 -1.73,20.25 z m 29.86,458.28 587.11,-54.3 c 5.5,-0.51 9.54,-5.38 9.04,-10.88 -0.51,-5.49 -5.38,-9.54 -10.88,-9.03 l -588.91,54.46 c 1.18,6.59 2.39,13.17 3.64,19.75 z m 247,704.94 425.32,-39.33 c 5.5,-0.51 9.55,-5.39 9.04,-10.88 -0.52,-5.5 -5.38,-9.55 -10.88,-9.05 l -433.22,40.07 c 3.22,6.42 6.48,12.81 9.74,19.19 z m -146,-337.1 624.99,-57.8 c 5.5,-0.51 9.54,-5.38 9.03,-10.88 -0.5,-5.5 -5.38,-9.55 -10.87,-9.04 l -630.01,58.27 c 2.26,6.48 4.55,12.97 6.86,19.45"
            style="fill:#235c2b;fill-opacity:1;fill-rule:nonzero;stroke:none"
            id="path318" />
      </g>
   </g>
</svg>